<?xml version="1.0" encoding="utf-8"?>
<!-- Generator: Adobe Illustrator 24.0.1, SVG Export Plug-In . SVG Version: 6.00 Build 0)  -->
<svg version="1.1" id="Layer_1" xmlns="http://www.w3.org/2000/svg" xmlns:xlink="http://www.w3.org/1999/xlink" x="0px" y="0px"
	 viewBox="0 0 47 35.4" style="enable-background:new 0 0 47 35.4;" xml:space="preserve">
<style type="text/css">
	.st0{clip-path:url(#SVGID_5_);}
	.st1{clip-path:url(#SVGID_10_);}
	.st2{clip-path:url(#SVGID_11_);}
	.st3{clip-path:url(#SVGID_17_);}
	.st4{clip-path:url(#SVGID_18_);}
	.st5{clip-path:url(#SVGID_19_);}
	.st6{clip-path:url(#SVGID_26_);}
	.st7{clip-path:url(#SVGID_27_);}
	.st8{clip-path:url(#SVGID_28_);}
	.st9{clip-path:url(#SVGID_29_);}
	.st10{clip-path:url(#SVGID_30_);fill:#022A4100;}
	.st11{clip-path:url(#SVGID_36_);}
	.st12{clip-path:url(#SVGID_37_);}
	.st13{clip-path:url(#SVGID_38_);}
	.st14{clip-path:url(#SVGID_39_);}
	.st15{clip-path:url(#SVGID_40_);fill:#022A4100;}
	.st16{fill:#FFFFFF;}
</style>
<g>
	<g>
		<g>
			<defs>
				<path id="SVGID_1_" d="M7.1,2.5c-2.6,0-4.7,2.1-4.7,4.7v19.9c0,2.6,2.1,4.7,4.7,4.7h32.2c2.6,0,4.7-2.1,4.7-4.7V7.2
					c0-2.6-2.1-4.7-4.7-4.7H7.1z"/>
			</defs>
			<clipPath id="SVGID_2_">
				<use xlink:href="#SVGID_1_"  style="overflow:visible;"/>
			</clipPath>
		</g>
		<g>
			<defs>
				<path id="SVGID_3_" d="M7.1,2.5c-2.6,0-4.7,2.1-4.7,4.7v19.9c0,2.6,2.1,4.7,4.7,4.7h32.2c2.6,0,4.7-2.1,4.7-4.7V7.2
					c0-2.6-2.1-4.7-4.7-4.7H7.1z"/>
			</defs>
			<defs>
				<path id="SVGID_4_" d="M7.1,2.5c-2.6,0-4.7,2.1-4.7,4.7v19.9c0,2.6,2.1,4.7,4.7,4.7h32.2c2.6,0,4.7-2.1,4.7-4.7V7.2
					c0-2.6-2.1-4.7-4.7-4.7H7.1z"/>
			</defs>
			<clipPath id="SVGID_5_">
				<use xlink:href="#SVGID_3_"  style="overflow:visible;"/>
			</clipPath>
			<clipPath id="SVGID_6_" class="st0">
				<use xlink:href="#SVGID_4_"  style="overflow:visible;"/>
			</clipPath>
		</g>
		<g>
			<defs>
				<path id="SVGID_7_" d="M7.1,2.5c-2.6,0-4.7,2.1-4.7,4.7v19.9c0,2.6,2.1,4.7,4.7,4.7h32.2c2.6,0,4.7-2.1,4.7-4.7V7.2
					c0-2.6-2.1-4.7-4.7-4.7H7.1z"/>
			</defs>
			<defs>
				<path id="SVGID_8_" d="M7.1,2.5c-2.6,0-4.7,2.1-4.7,4.7v19.9c0,2.6,2.1,4.7,4.7,4.7h32.2c2.6,0,4.7-2.1,4.7-4.7V7.2
					c0-2.6-2.1-4.7-4.7-4.7H7.1z"/>
			</defs>
			<defs>
				<path id="SVGID_9_" d="M7.1,2.5c-2.6,0-4.7,2.1-4.7,4.7v19.9c0,2.6,2.1,4.7,4.7,4.7h32.2c2.6,0,4.7-2.1,4.7-4.7V7.2
					c0-2.6-2.1-4.7-4.7-4.7H7.1z"/>
			</defs>
			<clipPath id="SVGID_10_">
				<use xlink:href="#SVGID_7_"  style="overflow:visible;"/>
			</clipPath>
			<clipPath id="SVGID_11_" class="st1">
				<use xlink:href="#SVGID_8_"  style="overflow:visible;"/>
			</clipPath>
			<clipPath id="SVGID_12_" class="st2">
				<use xlink:href="#SVGID_9_"  style="overflow:visible;"/>
			</clipPath>
		</g>
		<g>
			<defs>
				<path id="SVGID_13_" d="M7.1,2.5c-2.6,0-4.7,2.1-4.7,4.7v19.9c0,2.6,2.1,4.7,4.7,4.7h32.2c2.6,0,4.7-2.1,4.7-4.7V7.2
					c0-2.6-2.1-4.7-4.7-4.7H7.1z"/>
			</defs>
			<defs>
				<path id="SVGID_14_" d="M7.1,2.5c-2.6,0-4.7,2.1-4.7,4.7v19.9c0,2.6,2.1,4.7,4.7,4.7h32.2c2.6,0,4.7-2.1,4.7-4.7V7.2
					c0-2.6-2.1-4.7-4.7-4.7H7.1z"/>
			</defs>
			<defs>
				<path id="SVGID_15_" d="M7.1,2.5c-2.6,0-4.7,2.1-4.7,4.7v19.9c0,2.6,2.1,4.7,4.7,4.7h32.2c2.6,0,4.7-2.1,4.7-4.7V7.2
					c0-2.6-2.1-4.7-4.7-4.7H7.1z"/>
			</defs>
			<defs>
				<path id="SVGID_16_" d="M7.1,2.5c-2.6,0-4.7,2.1-4.7,4.7v19.9c0,2.6,2.1,4.7,4.7,4.7h32.2c2.6,0,4.7-2.1,4.7-4.7V7.2
					c0-2.6-2.1-4.7-4.7-4.7H7.1z"/>
			</defs>
			<clipPath id="SVGID_17_">
				<use xlink:href="#SVGID_13_"  style="overflow:visible;"/>
			</clipPath>
			<clipPath id="SVGID_18_" class="st3">
				<use xlink:href="#SVGID_14_"  style="overflow:visible;"/>
			</clipPath>
			<clipPath id="SVGID_19_" class="st4">
				<use xlink:href="#SVGID_15_"  style="overflow:visible;"/>
			</clipPath>
			<clipPath id="SVGID_20_" class="st5">
				<use xlink:href="#SVGID_16_"  style="overflow:visible;"/>
			</clipPath>
		</g>
		<g>
			<defs>
				<path id="SVGID_21_" d="M7.1,2.5c-2.6,0-4.7,2.1-4.7,4.7v19.9c0,2.6,2.1,4.7,4.7,4.7h32.2c2.6,0,4.7-2.1,4.7-4.7V7.2
					c0-2.6-2.1-4.7-4.7-4.7H7.1z"/>
			</defs>
			<defs>
				<path id="SVGID_22_" d="M7.1,2.5c-2.6,0-4.7,2.1-4.7,4.7v19.9c0,2.6,2.1,4.7,4.7,4.7h32.2c2.6,0,4.7-2.1,4.7-4.7V7.2
					c0-2.6-2.1-4.7-4.7-4.7H7.1z"/>
			</defs>
			<defs>
				<path id="SVGID_23_" d="M7.1,2.5c-2.6,0-4.7,2.1-4.7,4.7v19.9c0,2.6,2.1,4.7,4.7,4.7h32.2c2.6,0,4.7-2.1,4.7-4.7V7.2
					c0-2.6-2.1-4.7-4.7-4.7H7.1z"/>
			</defs>
			<defs>
				<path id="SVGID_24_" d="M7.1,2.5c-2.6,0-4.7,2.1-4.7,4.7v19.9c0,2.6,2.1,4.7,4.7,4.7h32.2c2.6,0,4.7-2.1,4.7-4.7V7.2
					c0-2.6-2.1-4.7-4.7-4.7H7.1z"/>
			</defs>
			<defs>
				<path id="SVGID_25_" d="M7.1,2.5c-2.6,0-4.7,2.1-4.7,4.7v19.9c0,2.6,2.1,4.7,4.7,4.7h32.2c2.6,0,4.7-2.1,4.7-4.7V7.2
					c0-2.6-2.1-4.7-4.7-4.7H7.1z"/>
			</defs>
			<clipPath id="SVGID_26_">
				<use xlink:href="#SVGID_21_"  style="overflow:visible;"/>
			</clipPath>
			<clipPath id="SVGID_27_" class="st6">
				<use xlink:href="#SVGID_22_"  style="overflow:visible;"/>
			</clipPath>
			<clipPath id="SVGID_28_" class="st7">
				<use xlink:href="#SVGID_23_"  style="overflow:visible;"/>
			</clipPath>
			<clipPath id="SVGID_29_" class="st8">
				<use xlink:href="#SVGID_24_"  style="overflow:visible;"/>
			</clipPath>
			<clipPath id="SVGID_30_" class="st9">
				<use xlink:href="#SVGID_25_"  style="overflow:visible;"/>
			</clipPath>
			<path class="st10" d="M39.3,31.8H7.1c-2.6,0-4.7-2.1-4.7-4.7V7.2c0-2.6,2.1-4.7,4.7-4.7h32.2c2.6,0,4.7,2.1,4.7,4.7v19.9
				C44,29.7,41.9,31.8,39.3,31.8"/>
		</g>
		<g>
			<defs>
				<path id="SVGID_31_" d="M7.1,2.5c-2.6,0-4.7,2.1-4.7,4.7v19.9c0,2.6,2.1,4.7,4.7,4.7h32.2c2.6,0,4.7-2.1,4.7-4.7V7.2
					c0-2.6-2.1-4.7-4.7-4.7H7.1z"/>
			</defs>
			<defs>
				<path id="SVGID_32_" d="M7.1,2.5c-2.6,0-4.7,2.1-4.7,4.7v19.9c0,2.6,2.1,4.7,4.7,4.7h32.2c2.6,0,4.7-2.1,4.7-4.7V7.2
					c0-2.6-2.1-4.7-4.7-4.7H7.1z"/>
			</defs>
			<defs>
				<path id="SVGID_33_" d="M7.1,2.5c-2.6,0-4.7,2.1-4.7,4.7v19.9c0,2.6,2.1,4.7,4.7,4.7h32.2c2.6,0,4.7-2.1,4.7-4.7V7.2
					c0-2.6-2.1-4.7-4.7-4.7H7.1z"/>
			</defs>
			<defs>
				<path id="SVGID_34_" d="M7.1,2.5c-2.6,0-4.7,2.1-4.7,4.7v19.9c0,2.6,2.1,4.7,4.7,4.7h32.2c2.6,0,4.7-2.1,4.7-4.7V7.2
					c0-2.6-2.1-4.7-4.7-4.7H7.1z"/>
			</defs>
			<defs>
				<path id="SVGID_35_" d="M7.1,2.5c-2.6,0-4.7,2.1-4.7,4.7v19.9c0,2.6,2.1,4.7,4.7,4.7h32.2c2.6,0,4.7-2.1,4.7-4.7V7.2
					c0-2.6-2.1-4.7-4.7-4.7H7.1z"/>
			</defs>
			<clipPath id="SVGID_36_">
				<use xlink:href="#SVGID_31_"  style="overflow:visible;"/>
			</clipPath>
			<clipPath id="SVGID_37_" class="st11">
				<use xlink:href="#SVGID_32_"  style="overflow:visible;"/>
			</clipPath>
			<clipPath id="SVGID_38_" class="st12">
				<use xlink:href="#SVGID_33_"  style="overflow:visible;"/>
			</clipPath>
			<clipPath id="SVGID_39_" class="st13">
				<use xlink:href="#SVGID_34_"  style="overflow:visible;"/>
			</clipPath>
			<clipPath id="SVGID_40_" class="st14">
				<use xlink:href="#SVGID_35_"  style="overflow:visible;"/>
			</clipPath>
			<path class="st15" d="M39.3,31.8H7.1c-2.6,0-4.7-2.1-4.7-4.7V7.2c0-2.6,2.1-4.7,4.7-4.7h32.2c2.6,0,4.7,2.1,4.7,4.7v19.9
				C44,29.7,41.9,31.8,39.3,31.8"/>
		</g>
	</g>
</g>
<g>
	<path class="st16" d="M14.3,10.3c-0.4-0.1-0.8-0.2-1.3-0.1c-0.6,0.1-1.1,0.5-1.5,1c-0.4,0.6-0.5,1.2-0.4,2l0,0
		c0.1,0.6,0.4,1.1,0.9,1.4c0.3,0.2,0.8,0.4,1.5,0.6c1.1,0.3,1.9,0.7,2.4,1c0.7,0.5,1.1,1.2,1.3,2.1l0.2,0.9L13,20.1l-0.1-0.7l0-0.1
		l0,0c0-0.1-0.4-0.2-1.1-0.4c-1.4-0.4-2.4-0.9-3-1.3c-1.1-0.8-1.7-1.9-2-3.4l0,0c-0.3-1.6,0-3.1,0.9-4.5c1-1.5,2.6-2.5,4.6-2.9
		l0.1,0c1.4-0.2,2.8-0.1,3.9,0.3c1,0.4,2,1.1,2.9,2.2l-3.7,2.2C15.1,10.8,14.7,10.5,14.3,10.3z M17.3,21.5c0.6,0.4,1,1,1.2,1.8
		c0.1,0.8,0,1.5-0.4,2.1c-0.4,0.6-1,1-1.8,1.2c-0.8,0.1-1.5,0-2.1-0.4c-0.6-0.4-1-1-1.2-1.8c-0.1-0.8,0-1.5,0.4-2.1
		c0.4-0.6,1-1,1.8-1.2C15.9,20.9,16.6,21,17.3,21.5z"/>
</g>
<path class="st16" d="M39.2,23.6c-0.2-0.4-0.6-0.8-1-0.9c-2-0.8-3.9-1.6-5.9-2.3c-0.4-0.1-0.7-0.4-1-0.7c-0.3-0.3-0.6-0.5-0.8-0.8
	c-0.1-0.1-0.2-0.2-0.2-0.2c0-0.4,0-0.8,0.1-1.2c0.2-0.6,0.4-1.1,0.6-1.7c0-0.1,0.1-0.2,0.2-0.2c0.4,0,0.6-0.4,0.7-0.7
	c0.2-0.8,0.4-1.6,0.6-2.4c0.1-0.2,0-0.5-0.3-0.5c-0.2-0.1-0.2-0.2-0.2-0.4c0.3-1,0.3-2,0-2.9c-0.5-1.7-1.5-3.1-3.4-3.5
	c-0.8-0.2-1.7-0.3-2.5-0.4c0.2,0,0.3,0,0.5-0.1c-0.8-0.1-1.5,0-2.2,0.3c0-0.1,0-0.1,0-0.2c-0.4,0.2-0.8,0.4-1,0.8
	c-0.1,0.2-0.2,0.3-0.4,0.3c-0.4,0.1-0.8,0.3-1.1,0.6c0.1,0,0.1,0,0.2,0c-0.3,0.3-0.5,0.6-0.5,1c0,0.4-0.1,0.7-0.1,1
	c0,0.3-0.1,0.7,0,1c0.1,0.8,0.2,1.6,0.3,2.4c-0.2,0-0.4,0.1-0.4,0.4c0,0.3,0,0.7,0.1,1c0.1,0.4,0.3,0.8,0.4,1.2
	c0.1,0.2,0.2,0.5,0.3,0.7c0.1,0.1,0.2,0.3,0.3,0.3c0.2,0,0.2,0.2,0.3,0.3c0.2,0.5,0.4,1,0.6,1.5c0,0.1,0.1,0.2,0.1,0.3
	c0,0.4,0,0.8-0.1,1.2c0,0.1-0.1,0.2-0.2,0.3c-0.3,0.3-0.6,0.5-0.9,0.7c-0.2,0.2-0.4,0.3-0.6,0.4c-0.9,0.4-1.8,0.7-2.7,1
	c0.3,0.4,0.5,0.8,0.7,1.3c0.3,1.1,0.2,2.2-0.3,3.2c-0.5,1-1.4,1.7-2.5,2.1c-1.1,0.3-2.2,0.2-3.2-0.3c0,0,0,0,0,0c0,0.8,0,1.5,0,2.3
	c0,0.6,0,0.6,0.6,0.6c2.5,0,5,0,7.6,0c2.7,0,5.4,0,8.1,0c1.9,0,3.8,0,5.7,0c1.3,0,2.6,0,4,0c0.2,0,0.3-0.1,0.3-0.3
	c0-1.3,0-2.5,0-3.8C40.1,25.4,39.7,24.4,39.2,23.6z"/>
</svg>
