<?xml version="1.0" encoding="utf-8"?>
<!-- Generator: Adobe Illustrator 22.1.0, SVG Export Plug-In . SVG Version: 6.00 Build 0)  -->
<svg version="1.1" id="Layer_1" xmlns="http://www.w3.org/2000/svg" xmlns:xlink="http://www.w3.org/1999/xlink" x="0px" y="0px"
	 viewBox="0 0 47 35.4" style="enable-background:new 0 0 47 35.4;" xml:space="preserve">
<style type="text/css">
	.st0{clip-path:url(#SVGID_2_);}
	.st1{fill:#022A4100;}
	.st2{clip-path:url(#SVGID_6_);}
	.st3{clip-path:url(#SVGID_7_);fill:#022A4100;}
	.st4{fill:#FFFFFF;}
</style>
<g>
	<g>
		<defs>
			<path id="SVGID_1_" d="M7.7,31.8h31c2.9,0,5.3-2.4,5.3-5.3V7.8c0-2.9-2.4-5.3-5.3-5.3h-31c-2.9,0-5.3,2.4-5.3,5.3v18.7
				C2.4,29.4,4.8,31.8,7.7,31.8z"/>
		</defs>
		<clipPath id="SVGID_2_">
			<use xlink:href="#SVGID_1_"  style="overflow:visible;"/>
		</clipPath>
		<g class="st0">
			<g>
				<path id="SVGID_3_" class="st1" d="M7.1,2.5c-2.6,0-4.7,2.1-4.7,4.7v19.9c0,2.6,2.1,4.7,4.7,4.7h32.2c2.6,0,4.7-2.1,4.7-4.7V7.2
					c0-2.6-2.1-4.7-4.7-4.7C39.3,2.5,7.1,2.5,7.1,2.5z"/>
			</g>
			<g>
				<defs>
					<path id="SVGID_4_" d="M7.1,2.5c-2.6,0-4.7,2.1-4.7,4.7v19.9c0,2.6,2.1,4.7,4.7,4.7h32.2c2.6,0,4.7-2.1,4.7-4.7V7.2
						c0-2.6-2.1-4.7-4.7-4.7C39.3,2.5,7.1,2.5,7.1,2.5z"/>
				</defs>
				<defs>
					<path id="SVGID_5_" d="M7.1,2.5c-2.6,0-4.7,2.1-4.7,4.7v19.9c0,2.6,2.1,4.7,4.7,4.7h32.2c2.6,0,4.7-2.1,4.7-4.7V7.2
						c0-2.6-2.1-4.7-4.7-4.7C39.3,2.5,7.1,2.5,7.1,2.5z"/>
				</defs>
				<clipPath id="SVGID_6_">
					<use xlink:href="#SVGID_4_"  style="overflow:visible;"/>
				</clipPath>
				<clipPath id="SVGID_7_" class="st2">
					<use xlink:href="#SVGID_5_"  style="overflow:visible;"/>
				</clipPath>
				<path class="st3" d="M39.3,31.8H7.1c-2.6,0-4.7-2.1-4.7-4.7V7.2c0-2.6,2.1-4.7,4.7-4.7h32.2c2.6,0,4.7,2.1,4.7,4.7v19.9
					C44,29.7,41.9,31.8,39.3,31.8"/>
				<path class="st3" d="M39.3,31.8H7.1c-2.6,0-4.7-2.1-4.7-4.7V7.2c0-2.6,2.1-4.7,4.7-4.7h32.2c2.6,0,4.7,2.1,4.7,4.7v19.9
					C44,29.7,41.9,31.8,39.3,31.8"/>
			</g>
		</g>
	</g>
	<path class="st4" d="M32.1,27.5c-0.8,0.4-1.6,0.5-2.4,0.3c-0.6-0.1-1.1-0.3-1.6-0.6l-1.2-0.5c-1-0.3-2.1-0.3-3.1-0.1h-0.1
		c-1-0.3-2.1-0.3-3.1,0.1c-0.4,0.1-0.8,0.3-1.2,0.5c-0.5,0.2-1.1,0.4-1.6,0.6c-0.8,0.2-1.7,0.1-2.4-0.3l-0.1-0.1c0,0,0,0,0,0
		c0.5,0.5,1.2,0.9,1.8,1.1c0.5,0.1,1,0.2,1.4,0.1c0.7-0.1,1.4-0.4,2-0.8l1.1-0.7c0.4-0.3,0.9-0.4,1.4-0.3c0.3,0,0.1,0.2,0,0.2
		c-0.7,0.3-1.3,0.7-1.9,1.2c-0.4,0.3-1.1,1-1.1,1l0.5,0.4l0.6-0.6c0.7-0.7,1.5-1.4,2.4-1.9c0.1-0.1,0.2-0.1,0.2,0
		c0.9,0.5,1.7,1.1,2.4,1.9l0.6,0.6l0.5-0.4l-1.1-1c-0.6-0.4-1.2-0.8-1.9-1.2c-0.1,0-0.2-0.2,0-0.2c0.5-0.1,1,0,1.4,0.3l1.1,0.7
		c0.6,0.4,1.3,0.7,2,0.8c0.5,0.1,1,0,1.4-0.1c0.7-0.2,1.3-0.6,1.8-1.1c0,0,0,0-0.1,0L32.1,27.5 M34.7,25.3c-0.3,0.3-0.7,0.4-1.1,0.6
		c-0.6,0.2-1.2,0.3-1.7,0.3c-0.8,0-1.5,0.1-2.3,0.2c-0.1,0-0.1,0-0.1,0c0.7-0.3,1.2-0.8,1.5-1.4l0.7-1.5v-0.1c-0.1,0-0.8,0.7-1.1,1
		l-1.2,1.2c-0.6,0.5-1.2,0.8-1.9,1h0l0,0l1.4,0.3c0.6,0.2,1.2,0.3,1.9,0.3C32.3,27.3,33.8,26.6,34.7,25.3
		C34.7,25.3,34.7,25.3,34.7,25.3 M37,21.8c-0.4,0.4-0.8,0.8-1.3,1.2c-0.4,0.3-0.9,0.5-1.3,0.7c-0.6,0.2-1.2,0.6-1.7,1l-0.1,0.1
		c0,0,0,0,0,0s0.8-0.8,1-2.5c0-0.6,0.1-1.2,0.3-1.8v-0.1c-0.6,0.7-1,1.4-1.3,2.3L32.1,24c-0.2,0.6-0.5,1.2-1,1.6l-0.1,0.1v0
		c0.1,0,0.1,0,0.2,0l1.5-0.3c0.8-0.1,1.6-0.5,2.3-1c0.7-0.5,1.3-1.2,1.7-1.9C36.8,22.2,36.9,22,37,21.8C37,21.7,37,21.7,37,21.8
		 M38,17.8c-0.2,0.7-0.7,1.4-1.2,1.9c-0.6,0.6-1.2,1.3-1.7,2c0,0-0.1,0,0,0c0.2-0.7,0.3-1.5,0.2-2.2c-0.1-0.6-0.4-1.3-0.4-2.1l0,0
		c0,0,0,0.1,0,0.1c-0.2,0.5-0.3,1-0.3,1.5c0,0.6,0.1,1.4,0,2.1c-0.1,0.7-0.1,1.5-0.4,2.2v0.1l1.6-1c0.7-0.4,1.2-0.9,1.7-1.6
		C37.7,19.8,38,18.9,38,17.8L38,17.8C38,17.8,38,17.8,38,17.8"/>
	<path class="st4" d="M36.3,18.2C36.3,18.2,36.3,18.2,36.3,18.2C36.3,18.3,36.3,18.2,36.3,18.2c0-0.2,0-0.4,0-0.6
		c-0.1-0.7-0.5-1.3-0.9-2c-0.3-0.4-0.5-0.8-0.7-1.3c0,0,0,0-0.1,0c0,0.1,0,0.3,0,0.4c0.1,1,0.4,2.1,0.8,3.1c0.2,0.6,0.3,1.3,0.3,1.9
		c0,0.1,0,0.1,0,0.1c0.2-0.3,0.7-0.8,1-1.2c0.3-0.4,1.9-2.2,1.1-4.6c0-0.1-0.1-0.2-0.1-0.3l0,0c0,1.8-0.9,2.5-1.2,3.8
		C36.4,17.8,36.3,18.1,36.3,18.2 M36.3,14.6l-0.2-0.4l-0.1-0.2c-0.3-0.5-0.6-0.9-1.1-1.2c-0.4-0.3-0.7-0.7-0.9-1H34h0
		c0,0.1,0.3,0.9,0.4,1.2c0.3,0.5,0.6,1,0.9,1.4l0.1,0.1c0.4,0.6,0.8,1.3,1,2c0,0,0,0,0,0l0.4-1.4c0.2-0.5,0.3-1,0.4-1.5
		c0.2-1.2-0.2-2.7-0.9-3.5c0,0,0,0,0,0.1l0,0.1l0.1,0.2c0.1,0.6,0.2,1.3,0,1.9c-0.1,0.5-0.1,1-0.1,1.5
		C36.4,13.9,36.4,14.6,36.3,14.6C36.4,14.6,36.4,14.6,36.3,14.6 M34.2,8c0.2,0.2,0.4,0.4,0.5,0.7c0.2,0.4,0.2,1.1,0.4,1.6l0.2,0.9
		c0,0,0,0.1-0.1,0c-0.4-0.5-0.9-0.9-1.4-1.2c-0.4-0.2-0.7-0.5-0.9-0.8L32.8,9c0,0,0,0-0.1,0v0.1c0.1,0.6,0.4,1.1,0.8,1.6
		c0.3,0.3,0.7,0.6,1.1,0.9c0.4,0.4,0.9,0.8,1.3,1.3c0,0,0,0,0,0v-0.4l0-1.3v-0.4c0-0.4-0.1-0.9-0.2-1.3c-0.3-0.7-0.8-1.2-1.4-1.5
		C34.3,8,34.3,8,34.2,8C34.2,7.9,34.2,8,34.2,8 M31.5,6.7c0.4,0.3,0.7,0.7,1,1.2c0.3,0.4,0.6,0.8,0.9,1.1c0.2,0.2,0.9,0.8,1.1,0.9
		c0-0.2-0.4-1.7-1.3-2.4c-0.5-0.4-1.2-0.7-1.8-0.9L31.5,6.7L31.5,6.7 M16.8,27.2c0.6-0.1,1.2-0.2,1.8-0.3l1.4-0.3h0c0,0,0,0,0,0h0
		c-0.7-0.2-1.4-0.5-1.9-1l-1.2-1.2l-1.1-1v0.1c0.1,0.2,0.5,1,0.7,1.5c0.3,0.7,0.8,1.2,1.5,1.4c0,0,0,0-0.1,0
		c-0.7-0.1-1.5-0.2-2.3-0.2c-0.6,0-1.2-0.1-1.7-0.3c-0.4-0.1-0.8-0.3-1.1-0.6h-0.1c0.5,0.7,1.3,1.3,2.1,1.6
		C15.5,27.1,16.2,27.2,16.8,27.2 M16.2,25.6c0.1,0,0.1,0,0.2,0v0l-0.1-0.1c-0.4-0.4-0.8-1-1-1.6l-0.5-1.3c-0.3-0.8-0.7-1.6-1.3-2.3
		v0.1c0.2,0.6,0.2,1.2,0.3,1.8c0.2,1.6,1,2.4,1,2.4c0,0,0,0.1,0,0l-0.1-0.1c-0.5-0.4-1-0.7-1.7-1c-0.5-0.2-0.9-0.4-1.3-0.7
		c-0.5-0.3-0.9-0.7-1.3-1.2h0c0.1,0.2,0.2,0.4,0.3,0.6c0.4,0.8,1,1.4,1.7,1.9c0.7,0.5,1.5,0.9,2.3,1C15.2,25.4,15.7,25.5,16.2,25.6
		 M12,22.2l1.6,1c0,0,0,0,0-0.1c-0.3-0.7-0.4-1.4-0.4-2.2c-0.1-0.7,0.1-1.4,0-2.1c-0.1-0.5-0.2-1-0.3-1.5c0,0,0-0.1,0-0.1l0,0
		c-0.1,0.8-0.3,1.4-0.4,2.1c-0.1,0.7-0.1,1.5,0.2,2.2c0,0,0,0.1,0,0c-0.5-0.7-1.1-1.4-1.7-2c-0.6-0.5-1-1.2-1.2-1.9c0,0,0,0-0.1,0
		c0,0,0,0.1,0,0.1c0,1,0.3,1.9,0.9,2.8C10.8,21.3,11.4,21.8,12,22.2 M11.7,19.9C11.8,19.9,11.8,19.9,11.7,19.9c0-0.7,0.1-1.4,0.3-2
		c0.4-1,0.6-2,0.8-3.1c0-0.1,0-0.4,0-0.4c0,0,0,0,0,0c-0.2,0.4-0.4,0.9-0.7,1.3c-0.4,0.6-0.8,1.2-0.9,1.9c0,0.2,0,0.4,0,0.6
		c0,0,0,0,0,0v0L11,17.6c-0.4-1.2-1.2-2-1.2-3.8l0,0c-0.1,0.1-0.1,0.2-0.1,0.3c-0.8,2.5,0.8,4.2,1.1,4.6
		C11.1,19.1,11.5,19.6,11.7,19.9 M10.6,15l0.4,1.4c0,0,0,0,0,0c0.2-0.7,0.6-1.4,1-2l0.1-0.1c0.4-0.4,0.7-0.9,0.9-1.4
		c0.2-0.4,0.4-1.2,0.4-1.2h0h-0.1c-0.3,0.4-0.6,0.7-0.9,1c-0.4,0.3-0.8,0.7-1.1,1.2c0,0.1-0.1,0.2-0.1,0.2l-0.2,0.4c0,0,0,0.1,0,0
		c0-0.1,0.1-0.7,0.1-0.8c0-0.5-0.1-1-0.2-1.5c-0.1-0.7-0.1-1.3,0-1.9c0-0.1,0-0.1,0.1-0.2c0,0,0-0.1,0-0.1s0,0,0-0.1
		c-0.7,0.8-1.1,2.4-0.9,3.5C10.3,14,10.5,14.5,10.6,15 M11.6,11.2l0,1.3v0.4h0c0.4-0.5,0.8-0.9,1.2-1.3l1-0.9c0.4-0.4,0.7-1,0.8-1.6
		V9h0l-0.1,0.2C14.3,9.5,14,9.8,13.7,10c-0.6,0.4-1,0.7-1.4,1.2c0,0-0.1,0,0,0l0.2-0.9c0.1-0.5,0.2-1.2,0.4-1.6
		c0.1-0.3,0.3-0.5,0.5-0.7V7.9c-0.1,0-0.1,0-0.1,0.1c-0.7,0.3-1.1,0.9-1.4,1.5c-0.2,0.4-0.3,0.8-0.2,1.3V11.2 M13,9.9L13,9.9L14.1,9
		c0.3-0.3,0.7-0.7,0.9-1.1c0.3-0.4,0.6-0.8,1-1.2l0.1-0.1V6.6c-0.7,0.2-1.3,0.4-1.8,0.9C13.3,8.2,13,9.7,13,9.9 M23.5,18.1
		c0.1-0.1-0.1-0.2-0.2,0C23.3,18.3,23.4,18.2,23.5,18.1 M25.5,13.5c-0.1,0-0.4,0.3-0.3,0.4C25.3,13.8,25.4,13.6,25.5,13.5
		 M25.6,13.4c0.1,0,0.2-0.1,0.2-0.1c0,0-0.3-0.1-0.3-0.1C25.5,13.3,25.5,13.4,25.6,13.4 M29.1,16.7c0.1,0,0.1-0.2,0-0.2
		c-0.1,0-0.2,0.1-0.2,0.1C29,16.6,29,16.7,29.1,16.7 M27.8,13.2c-0.1,0-0.1,0.1,0,0.1c0.1,0,0.1,0,0.2,0c0.1,0,0.1-0.1,0.1-0.2
		c0-0.1-0.1-0.2-0.1-0.2c0.1-0.1,0.1,0,0.2,0c0.1,0,0.1-0.1,0.1-0.1c0-0.1,0-0.2-0.1-0.2c-0.1,0-0.2,0.2-0.2,0.2c0,0.1,0,0.1,0,0.2
		C28,13,27.9,13.2,27.8,13.2"/>
	<path class="st4" d="M29.5,13.2c0,0.1,0.1,0.4,0.2,0.5c0,0.1,0.1,0.4,0.1,0.3c0.1,0,0.1-0.2,0-0.3c0-0.2-0.1-0.4-0.1-0.6
		c0-0.1-0.2-0.5-0.3-0.5c-0.1,0,0.1,0.3,0.1,0.4C29.6,13.2,29.5,13.1,29.5,13.2 M28.6,8.7c0.1,0,0.1-0.1-0.1-0.2
		c-0.1-0.1-0.3-0.1-0.3,0C28.4,8.6,28.5,8.7,28.6,8.7 M24.7,7.6c-0.2-0.1,0-0.3-0.2-0.4c-0.2-0.1-0.3,0-0.4,0.1
		c-0.1,0.2,0.2,0.1,0.2,0.2C24.4,7.5,24.7,7.7,24.7,7.6C24.7,7.7,24.7,7.6,24.7,7.6 M25.7,7.1C25.5,7,24.6,7,24.7,7.2
		c0,0.2,0.5,0,0.6,0C25.4,7.2,25.9,7.2,25.7,7.1 M23.3,17.2c-0.1,0-0.1,0-0.2,0c0-0.1-0.1,0-0.1,0c0,0,0,0.1,0,0.1
		c0.1,0.1,0.2,0.1,0.2,0C23.4,17.3,23.4,17.2,23.3,17.2 M22.8,15.5c0.1,0,0.1-0.1,0.1-0.1s0,0.1,0.1,0.1c0.1,0,0.2-0.2-0.1-0.2
		C22.8,15.3,22.8,15.5,22.8,15.5 M23.2,15.7c-0.1,0-0.1,0.1-0.2,0.1c-0.2,0,0-0.1-0.1-0.2c0,0-0.1,0.1-0.1,0.2c0,0.1,0,0.2,0.1,0.2
		l0.5,0.1C23.4,16,23.3,15.7,23.2,15.7 M21.5,17.4c0.1,0,0.1-0.2,0.1-0.2c0-0.1-0.2,0-0.2,0C21.4,17.2,21.5,17.4,21.5,17.4
		 M19.4,17.4c0-0.1,0-0.3-0.1-0.3c-0.1-0.1-0.1,0-0.1,0s0-0.1-0.1-0.1c0,0,0,0.2,0.1,0.3C19.4,17.3,19.4,17.5,19.4,17.4 M19.4,16.9
		c0.1-0.2,0.1-0.3,0.1-0.5c0-0.1-0.1-0.2-0.1-0.2s0,0.1,0,0.2c0,0.1-0.1,0.3-0.1,0.4C19.3,16.8,19.4,17,19.4,16.9"/>
	<path class="st4" d="M16.7,22.8c3.9,3.9,10.2,3.9,14.1,0c3.9-3.9,3.9-10.2,0-14.1c-3.9-3.9-10.2-3.9-14.1,0
		C12.8,12.6,12.8,18.9,16.7,22.8 M14.2,15.9h1.5c0,0.8,0.2,1.5,0.4,2.3c-0.1,0-0.2-0.1-0.2-0.1c-0.1-0.1-0.2,0-0.2,0
		c-0.1,0-0.2-0.1-0.2,0c0,0.1,0.1,0,0.1,0.1c0,0.1-0.3,0.1-0.3-0.1c0-0.1-0.1-0.2-0.1-0.1c0,0.1-0.1,0.1-0.2,0.1
		c0,0-0.1,0.1-0.1,0.1c0,0.1-0.1,0-0.1,0.1c0,0.1,0.1,0.1,0.1,0.2c0,0.1,0.1,0.1,0.1,0.2c-0.1,0,0,0-0.1,0c-0.1,0,0.2,0.8,0.3,0.8
		c0.1,0-0.1-0.3-0.1-0.4c0-0.1,0-0.1,0.1-0.2c0.1-0.1,0.3,0.3,0.4,0.3s0-0.1,0.1-0.1c0.1,0,0.3,0.3,0.4,0.2c0.1-0.1,0.1,0.1,0.1,0.1
		c0.1,0.1,0.2,0.1,0.3,0.3c0.1,0.2,0.3,0.4,0.4,0.4c0.1,0,0.1-0.1,0.1-0.1c0.1,0,0.1,0.2,0.2,0.3c0.1,0.1,0.1,0.1,0.2,0.2
		c0.2,0.2,0.4,0.5,0.6,0.7l-1.1,1.1C15.2,20.6,14.2,18.3,14.2,15.9 M22.9,13.8l-0.1,0.1c-0.2,0.1-0.3,0.2-0.4,0.3L21.3,13
		c0.6-0.6,1.4-0.9,2.2-0.9v1.5c-0.2,0-0.4,0.1-0.6,0.1c0.1-0.1,0.2-0.2,0.2-0.2S23,13.6,22.9,13.8 M22.1,16.2
		C22.1,16.2,22.1,16.3,22.1,16.2L22.1,16.2C22.1,16.2,22.1,16.2,22.1,16.2C22,16.1,22,16.1,22,16.1h-0.1h-0.1l-0.1,0h-0.4
		c-0.1,0-0.1,0-0.1,0c0-0.1,0.1,0,0.2-0.3c0,0,0-0.1,0.1-0.1l0-0.1l0,0l0,0c0.1-0.1,0.1-0.1,0.2-0.1h0.1l0.1,0.1l0.1,0.2
		c0,0,0.1,0,0.1,0.1c0.1,0,0.1,0.1,0.1,0.1l0,0v0c0,0,0,0,0.1,0h0h0.1h0c0.1,0,0.1,0,0.1,0v0c0,0,0,0,0,0.1c0,0,0,0,0,0.1
		c0,0-0.1,0.1-0.1,0.1c-0.1,0-0.1,0-0.1,0c0,0-0.1,0-0.1,0L22.1,16.2 M19.3,18.8c-0.1-0.1-0.1-0.3-0.1-0.5c0-0.2-0.1-0.3-0.1-0.4
		c0-0.1-0.1-0.2-0.1-0.3c0-0.2-0.2-0.1-0.2-0.2c0-0.1,0.1,0,0.1-0.1c0-0.1-0.2-0.3-0.3-0.3c-0.1-0.1-0.1-0.1-0.1-0.2
		c0-0.1,0-0.2-0.1-0.2c0-0.1,0-0.3,0.1-0.3c0.1,0,0.1,0.1,0.2,0c0.1-0.1,0-0.2,0-0.3h0.7c0,0.1,0,0.2,0,0.3c-0.1,0-0.1,0.1-0.1,0.1
		c0,0,0.1,0.1,0.1,0c0.1,0.8,0.5,1.5,1,2l-1.1,1.1c-0.1-0.1-0.2-0.2-0.2-0.3v-0.1C19.4,19,19.2,18.9,19.3,18.8 M18.2,16.9
		c-0.1-0.3-0.1-0.7-0.1-1h0.6c-0.1,0.1-0.2,0.2-0.2,0.2c0,0.1-0.2,0.3-0.1,0.4C18.7,16.9,18.4,17,18.2,16.9 M18.4,20.8l-0.1,0.1
		c-0.1-0.1-0.1-0.1-0.2-0.2C18.2,20.7,18.3,20.7,18.4,20.8 M20,14.1C20,14.1,20,14.1,20,14.1c-0.1,0.1-0.3,0.1-0.3,0.2
		c0,0.1,0.6-0.2,0.6-0.1c0,0.1-0.2,0.1-0.4,0.2c-0.2,0.1-0.2,0.2-0.5,0.2c-0.1,0-0.2,0.1-0.2,0.2C19.1,14.8,19,14.9,19,15
		c0,0.2,0,0.3-0.1,0.5h-0.8c0.1-1.3,0.6-2.6,1.5-3.6l1.1,1.1C20.4,13.3,20.2,13.7,20,14.1 M21,13.3l0.9,0.9h-0.1
		c-0.1,0-0.1-0.1-0.2-0.1c-0.2,0-0.2,0.1-0.2,0.1c-0.1-0.1-0.2-0.2-0.4-0.3c-0.2-0.1-0.4-0.1-0.5,0c0,0,0,0-0.1,0
		C20.6,13.8,20.8,13.5,21,13.3 M19.7,15.2c0,0.1,0,0.2,0,0.3h-0.6c0-0.1,0-0.2,0.1-0.2c0.1-0.1,0.2-0.2,0.3-0.1
		C19.5,15.1,19.6,15.2,19.7,15.2 M20.1,16.4L20.1,16.4c0.1,0.1,0.2,0.2,0.2,0.2s0.2,0,0.2,0c0.1,0,0.1,0.1,0.2,0.1
		c0.1,0.1,0.2,0,0.2,0.1c0.1,0.1,0.2,0.1,0.1,0.2c-0.1,0.1,0.1,0.2,0.1,0.2c0,0,0.1-0.1,0.1-0.1c0,0,0.1-0.1,0.1-0.1
		c0.1,0,0.3,0.3,0.4,0.2c0.1-0.1,0-0.2,0.1-0.3c0,0,0-0.1,0.1-0.1c0.1,0.1,0.1,0.2,0.2,0.3L21,18.2C20.6,17.7,20.3,17.1,20.1,16.4
		 M21,12.7l-1-1.1c1-0.9,2.3-1.4,3.6-1.5v1.5C22.6,11.7,21.7,12,21,12.7 M19.6,11.3l-1.1-1.1c1.4-1.3,3.1-2,5-2.1v1.5
		C22.1,9.7,20.7,10.3,19.6,11.3 M19.3,11.6c-1,1.1-1.6,2.5-1.6,3.9h-1.5c0.1-1.9,0.8-3.6,2.1-5L19.3,11.6z M17.7,15.9
		c0,0.3,0,0.6,0.1,0.8c0,0,0-0.1-0.1-0.1c-0.1,0-0.4,0.5-0.5,0.7c-0.1,0.2,0.1,0.6-0.1,0.7c-0.2,0.1-0.3,0.1-0.5,0.1h0
		c-0.3-0.7-0.4-1.5-0.4-2.3L17.7,15.9z M23.5,25.3c-2.4-0.1-4.7-1-6.4-2.6l1.1-1.1c1.4,1.4,3.3,2.2,5.3,2.2V25.3z M23.5,23.3
		c-1.9-0.1-3.6-0.8-5-2.1l0.2-0.2c0,0,0.1,0.1,0.1,0.1c0.1,0.1,0.2,0.1,0.4,0.1c0.1,0,0.3-0.2,0.4-0.2c0.1,0,0.3,0.1,0.5,0
		c0.1-0.1-0.1-0.3-0.2-0.5c0,0,0-0.1-0.1-0.1c1,0.9,2.3,1.4,3.7,1.4L23.5,23.3z M23.5,21.4c-1.3-0.1-2.6-0.6-3.6-1.5l1.1-1.1
		c0.5,0.4,1.1,0.8,1.8,0.9c-0.2,0.1-0.3,0.3-0.3,0.4c0,0.1-0.2,0.2-0.2,0.4c0,0.2,0.2,0.3,0.2,0.4c0,0.1,0.2,0.2,0.4,0.3
		C23.1,21.3,23.3,21.3,23.5,21.4L23.5,21.4z M23.5,19.3c-0.1-0.1-0.1,0.1-0.2,0.1c-0.7-0.1-1.4-0.4-1.9-0.9l1.1-1.1
		c0.3,0.3,0.7,0.4,1.2,0.5c0,0.1,0.1,0.1,0.1,0.2c0,0.1-0.1,0.2-0.1,0.2c0,0.1,0.3,0,0.3-0.1c0-0.1-0.1-0.1-0.1-0.2
		c0-0.1,0-0.1-0.1-0.1h0.1c0.1,0,0.2,0,0.2,0c0,0,0.1,0,0.1-0.1c0,0,0-0.1,0-0.1c0,0,0,0,0-0.1l0,0c0,0.1,0.1,0.2,0.1,0.2
		s0.1-0.3,0.1-0.3c-0.1-0.1-0.1-0.2,0-0.2c0,0,0-0.2,0.1-0.2c0.1,0,0,0.2,0,0.2c0,0.1,0.1,0.2,0.1,0.1c0.1,0,0.1-0.1,0.2-0.1
		c0.1,0-0.1,0.1-0.2,0.1c0,0.1,0.1,0.1,0.1,0.1c0,0-0.1,0-0.1,0c0,0,0.1,0.2,0,0.2c-0.1,0-0.2,0.1-0.3,0.1c-0.1,0-0.1,0-0.1-0.1
		c0,0,0-0.1-0.1-0.1c-0.1,0-0.1,0-0.1,0.1c0,0.1,0.1,0.1,0.1,0.2s-0.1,0.1-0.1,0.1c-0.1,0.1-0.1,0.2-0.2,0.2
		c-0.1,0.1-0.2,0.1-0.2,0.1c0,0.1,0.1,0.1,0.1,0.1c0.1,0.1,0.1,0.2,0,0.2c-0.1,0.1-0.2-0.1-0.3-0.1c-0.1,0-0.1,0.2-0.1,0.3
		c0,0.2,0.3,0.2,0.4,0.1c0.1-0.1,0.1-0.2,0.2-0.3c0.1-0.1,0.1-0.2,0.2-0.1c0.1,0,0.1-0.1,0.2-0.1c0.1,0,0.1,0.1,0.2,0.1
		c0.2,0.1,0.2,0.2,0.2,0.1c0-0.1,0.1-0.1-0.1-0.2c-0.2-0.1-0.2-0.2-0.1-0.2c0.2,0.1,0.3,0.1,0.3,0.2c0,0.1,0.2,0.1,0.2,0.1
		c0,0.1,0.1,0,0.1-0.1c-0.1-0.1-0.1-0.1,0-0.2c0.1-0.1,0.1,0,0.2-0.1c0.1-0.1,0-0.1-0.1-0.1c0-0.1,0-0.3,0.1-0.3
		c0.1,0.1,0.2,0,0.2-0.1c-0.1,0,0-0.2,0.1-0.2c0,0,0,0.1,0,0.1c0,0,0.3-0.1,0.3,0.1c0,0.1-0.2,0.2-0.2,0.2c-0.1,0-0.2,0.1-0.3,0.2
		c-0.1,0.1-0.2,0.1-0.1,0.2c0.1,0.1,0.2,0.1,0.3,0c0.1-0.1,0.2-0.1,0.2-0.2c0.1-0.1,0.2,0.3,0.1,0.3c-0.1,0.1-0.2,0.1-0.2,0.1
		c-0.2,0.1-0.3,0.2-0.5,0.2c-0.1,0-0.1,0.1-0.1,0.2c0,0.1-0.5,0-0.6,0c-0.1,0,0.1-0.2-0.1-0.2s-0.3,0.1-0.5,0.1
		C23.8,19.2,23.6,19.4,23.5,19.3 M24.9,21.7c0.1,0.1,0.3,0.2,0.3,0.3c0.1,0.1,0.1,0.2,0.1,0.3c-0.1,0.2-0.1,0.4,0.2,0.5
		c0.2,0.1,0.2,0.2,0.3,0.3c-0.6,0.2-1.2,0.2-1.8,0.3v-1.5C24.3,21.8,24.6,21.8,24.9,21.7 M24,21.4v-0.2c0.3-0.1,0.3,0.2,0.5,0.1
		c0.1,0,0.2,0,0.2,0.1C24.4,21.3,24.2,21.4,24,21.4 M24,25.3v-1.5c0.8,0,1.6-0.2,2.3-0.4c0,0,0.1,0,0.1,0c0.1,0,0.2-0.1,0.3-0.1
		c0.3-0.1,0.5-0.2,0.7-0.4c0.7-0.3,1.3-0.8,1.9-1.3l1.1,1.1C28.6,24.3,26.4,25.2,24,25.3 M28.2,11.6l0.4-0.4
		c0.1,0.1,0.2,0.2,0.4,0.2c0.1,0,0.2,0.1,0.2,0.2c0,0.1,0.2,0.2,0.3,0.2c0.1,0,0.2,0.2,0.3,0.2c0.1,0,0.4,0.5,0.6,0.6
		c0.1,0.1,0.2,0.2,0.3,0.1c0.1-0.1,0.1-0.1,0.1-0.1c0.4,0.9,0.6,1.9,0.7,2.9h-1.5c0-0.3-0.1-0.7-0.1-1c0.1-0.1,0.1-0.2,0.1-0.3
		c0-0.1-0.1-0.2-0.2-0.1c-0.1-0.2-0.1-0.4-0.2-0.6c0-0.1-0.1-0.2-0.1-0.3c0,0-0.1-0.1-0.1-0.1c-0.1-0.1-0.1-0.2-0.1-0.3
		c0.1-0.1,0.1-0.2,0-0.2c-0.2,0-0.1-0.1-0.1-0.1c-0.1-0.1-0.1,0-0.1,0C28.7,12.2,28.5,11.9,28.2,11.6L28.2,11.6
		C28.2,11.6,28.2,11.6,28.2,11.6 M29.1,20.5c-0.1-0.1-0.1-0.2-0.1-0.3c0-0.1-0.2-0.1-0.2-0.1c0,0.1,0,0.2,0,0.3v0l-0.6-0.6
		c1-1.1,1.6-2.5,1.6-3.9h1.5c-0.1,1.9-0.8,3.6-2.1,5l-0.1-0.1C29.2,20.7,29.2,20.6,29.1,20.5 M27.9,21.5c0.1-0.1,0.2-0.4,0.3-0.5
		c0.1-0.1-0.2-0.3-0.4-0.4c-0.2-0.1-0.2-0.1-0.2-0.3c0.1-0.1,0.2-0.1,0.2-0.2l1.1,1.1c-0.4,0.3-0.7,0.6-1.2,0.9
		c0-0.1,0.2-0.2,0.2-0.3C28.1,21.8,27.8,21.6,27.9,21.5 M28.5,15.2c-0.1-0.2,0.1-0.2,0.2-0.3c0.1-0.1,0.2,0,0.2,0
		c0-0.1,0.1-0.2,0.1-0.2c0.1,0,0.1-0.1,0.2-0.1c0,0.1,0,0.1,0,0.2c-0.1,0.1-0.1,0.2-0.1,0.3c0,0.1,0,0.2,0.1,0c0,0,0,0,0-0.1
		c0.1,0.2,0.1,0.3,0.1,0.5h-1.1v0C28.3,15.4,28.6,15.4,28.5,15.2 M28.8,13.1C28.8,13.1,28.8,13.1,28.8,13.1c-0.1,0.1-0.2-0.2-0.2,0
		c0,0.2,0.1,0.2,0.2,0.2c0.1,0,0.1,0.1,0.1,0.1c0,0,0.1,0,0.1,0.1c0.1,0.3,0.2,0.6,0.3,0.9c-0.1,0-0.1,0.1-0.1,0.1
		c-0.1,0.1,0,0.2-0.1,0.2c-0.1,0.1-0.1,0.2-0.3,0.2c-0.1-0.1,0-0.2,0-0.3c0-0.1,0.1-0.1,0.1-0.2c0-0.1-0.3-0.4-0.4-0.3
		c-0.1,0.1-0.1,0.2-0.2,0.3c-0.1,0.1-0.1,0.1-0.2,0c-0.1-0.1-0.1-0.1-0.1-0.2c0-0.1-0.2-0.3-0.3-0.4c-0.1-0.1-0.3-0.2-0.4-0.2
		c-0.1-0.2-0.3-0.5-0.5-0.7l1.1-1.1C28.2,12.3,28.5,12.6,28.8,13.1 M26.9,13.8L26.9,13.8c-0.1,0.1-0.2,0-0.2,0.1c0,0,0.2,0.3,0,0.2
		c-0.2-0.1-0.1-0.1-0.1-0.2c0-0.1-0.2-0.1-0.1-0.2c0.1-0.1,0-0.1,0.1-0.2c0.1,0,0.1-0.1-0.1-0.2c-0.1,0-0.1,0.3-0.2,0.2
		c-0.1,0-0.2,0-0.2,0l0.4-0.4c0.1,0,0.1,0,0.1,0C26.7,13.5,26.8,13.7,26.9,13.8 M26.5,19.2c0.2,0,0.3,0.1,0.5,0.1
		c0.1,0.1,0.2,0.2,0.3,0c0.2-0.2,0.3-0.5,0.3-0.8c0.1-0.4,0-0.5-0.1-0.5c-0.1,0-0.2,0.1-0.3,0.1c-0.1,0-0.1,0.1-0.1,0.2
		c0,0.1-0.1,0.2-0.1,0.1c0-0.1-0.1,0-0.1,0c0,0.1-0.2,0-0.3,0c-0.2-0.1,0.2-0.1,0.3-0.2c0.1-0.1,0.3-0.2,0.4-0.4
		c0.1-0.1,0.1-0.3,0.2-0.4c0.1-0.1,0.3-0.1,0.4-0.2c0-0.2,0.1-0.1,0.1-0.1c0.1,0,0.8,0,0.8-0.3c0-0.1-0.2-0.2-0.3-0.3
		c-0.1,0-0.1-0.2-0.2-0.3c-0.1-0.1-0.1-0.2-0.2-0.3h1.1c-0.1,1.3-0.6,2.6-1.5,3.6l0,0v-0.1c0-0.2-0.1-0.6-0.2-0.5
		c-0.1,0.1,0,0.1-0.2,0.3c-0.1,0.1-0.1,0.2-0.2,0.2c-0.1,0-0.1-0.1-0.3,0c-0.1,0-0.3,0-0.4,0c-0.2-0.1-0.5-0.2-0.7-0.3
		c0,0,0.1,0,0.1-0.1C26,18.9,26.4,19.1,26.5,19.2 M30.6,22.3l-1.1-1.1c1.4-1.4,2.2-3.3,2.2-5.3h1.5C33.3,18.3,32.3,20.6,30.6,22.3
		 M33.3,15.5h-1.5c0-1.1-0.3-2.2-0.8-3.3l0,0c0.1-0.1-0.5-0.9-0.6-1c-0.1-0.1-0.2-0.2-0.3-0.3c-0.2-0.2-0.4-0.4-0.6-0.7l1.1-1.1
		C32.3,10.8,33.3,13.1,33.3,15.5 M24,6.2c2.4,0.1,4.7,1,6.4,2.6l-1,1c-0.1,0-0.1-0.1-0.1-0.1c0.1-0.1-0.1-0.1-0.1-0.3
		c-0.1-0.2-0.2-0.4-0.4-0.5c-0.1-0.1-0.2-0.2-0.3-0.2c-0.1-0.1-0.4-0.2-0.5-0.2c-0.1,0-0.2,0.1-0.3,0.1C26.5,8,25.3,7.7,24,7.7
		L24,6.2z M24,8.1c1.1,0,2.2,0.3,3.2,0.8c0,0.2,0.1,0.3,0.2,0.5c0.1,0.1,0.1,0.2,0.2,0.4c0.1,0.1,0,0.2,0.1,0.4
		c0,0.1,0.1,0.1,0.1,0.2v0.2c0,0,0.1,0,0.2,0c0.1-0.1,0.1-0.2,0.2-0.1c0.1,0,0.2,0.2,0.3,0.4L28,11.2c-0.1-0.1-0.1-0.2-0.1-0.2
		s0.1,0,0.1,0c0.1,0-0.1-0.1-0.1-0.1c-0.1-0.1-0.1-0.2-0.2-0.3c-0.1-0.1-0.3,0-0.3-0.1c-0.1-0.2-0.2-0.3-0.4-0.5
		c0,0,0.2,0.3,0.1,0.3c-0.1,0.1-0.4-0.2-0.4-0.1c0,0.1,0.3,0.2,0.4,0.3c0.1,0.1,0.2,0.2,0.3,0.3c-1-0.8-2.2-1.2-3.5-1.2V8.1z
		 M24,10.1c1.3,0.1,2.6,0.6,3.6,1.5l-1.1,1.1c-0.7-0.6-1.6-1-2.5-1V10.1z M24,12c0.8,0.1,1.6,0.4,2.2,0.9L26.2,13l-0.1,0
		c-0.1-0.1-0.4,0.2-0.3,0.2c0.1,0,0.2-0.1,0.2-0.1h0l-0.4,0.5c-0.1,0.1-0.3,0.2-0.3,0.2v0L25.1,14L25.1,14c-0.1-0.1-0.3-0.2-0.4-0.2
		c0.1-0.1,0.1-0.1,0.1-0.2c0-0.2-0.1-0.1-0.1,0c-0.1,0.1-0.2,0.1-0.2,0.2c-0.1-0.1-0.3-0.1-0.4-0.1L24,12L24,12z M23.8,14
		c0,0.1,0,0.1,0,0.1c-0.1,0.1-0.2-0.1-0.2,0c-0.1,0.2,0.1,0.1,0.1,0.1c0.1,0.1,0.2,0.2,0.3,0.2c0.1,0,0.3,0,0.3,0.1
		c0,0.1,0.1,0.1,0.2,0.1c0,0.1,0.1,0.2,0.1,0.2c0.1,0,0.1,0,0.2,0.1c0,0.1,0,0.1,0,0.1c-0.1,0.1,0.1,0.1,0.1,0.2
		c0,0.2-0.1,0.1-0.2,0.2c-0.1,0.1-0.1,0.1-0.2,0.2c0,0,0,0.1,0.1,0.1c0,0,0.1-0.1,0.2-0.1c0.1,0,0.2,0.3,0.2,0.3
		c0.1,0,0.1,0.1,0.1,0.2c0,0-0.1,0-0.1,0.1c0,0.1,0.2,0.1,0.2,0.2c0,0.1-0.1,0.2-0.2,0.2c-0.1,0-0.2-0.2-0.2-0.1s0.1,0.2,0.1,0.2
		c0.1,0,0.3-0.1,0.2,0c-0.1,0.1-0.1,0.3-0.1,0.3c-0.1,0-0.1,0,0,0.1c0,0.1,0,0.2-0.1,0.2c-0.1,0.1-0.2,0-0.2,0c0,0,0.2,0,0.2-0.1
		c0-0.1-0.1-0.1-0.2-0.1c-0.1,0-0.1,0-0.2,0c-0.1,0-0.2,0.2-0.2,0.2v0.1c0,0.1,0,0.2-0.1,0.3c-0.1,0-0.2,0-0.3,0
		c-0.4,0-0.8-0.2-1.2-0.4c0.1,0,0.1-0.1,0.2-0.1c0.1,0,0.1,0,0.2-0.1c0.1,0,0.2,0.1,0.3,0c0.1-0.1,0.3-0.4,0.2-0.5
		c0-0.1,0.2-0.2,0.2-0.2c0,0-0.1,0-0.1,0s0.1,0,0-0.1c-0.1-0.1-0.1-0.1-0.2-0.1C23.3,16,23.2,16,23.2,16c0,0-0.1-0.1-0.1,0
		c0,0-0.1,0-0.1,0.1c0,0.1,0,0.1,0,0.2c0,0.1-0.2,0.2-0.2,0.3c0,0.1-0.1,0-0.1,0.1c0,0,0,0.1-0.1,0.1c-0.1,0-0.1,0.1-0.2,0.2
		c-0.1-0.1-0.2-0.2-0.2-0.3c0.1,0,0.1-0.1,0.1,0c0.1,0.1,0.4-0.5,0.3-0.7c-0.1-0.2-0.1-0.1-0.2,0c-0.1,0-0.1-0.1-0.1-0.1
		c0,0,0.4,0,0.2-0.1c-0.1-0.1-0.3-0.1-0.3-0.1c0-0.1,0.1,0,0.2,0c0.1,0.1,0.2-0.2,0.3-0.2c0.1,0,0.1-0.3-0.1-0.2
		c-0.1,0.1-0.2,0.1-0.2,0.1c-0.1,0.1-0.2,0.2-0.2,0.1c0-0.1,0.3-0.2,0.3-0.3c0.1-0.1,0.1-0.1,0.1-0.2c0-0.1,0.4-0.1,0.5-0.2
		c0.1-0.1,0.1-0.1,0.1-0.2c0-0.1-0.1-0.1-0.1-0.1c0-0.1,0.1,0,0.1-0.1c0-0.1-0.1,0-0.2-0.1c0,0,0,0,0-0.1C23.5,14,23.6,14,23.8,14
		L23.8,14 M23.6,6.2v1.5c-2,0.1-3.9,0.8-5.3,2.2l-1.1-1.1C18.9,7.2,21.2,6.2,23.6,6.2 M16.8,9.1l1.1,1.1c-1.4,1.4-2.2,3.3-2.2,5.3
		h-1.5C14.3,13.1,15.2,10.8,16.8,9.1"/>
</g>
</svg>
