<svg xmlns="http://www.w3.org/2000/svg" xmlns:xlink="http://www.w3.org/1999/xlink" version="1.1" id="Layer_1" x="0px" y="0px" width="100%" viewBox="0 0 466 1080" enable-background="new 0 0 466 1080" xml:space="preserve">
<path fill="transparent" opacity="1.000000" stroke="none" d=" M467.000000,319.000000   C467.000000,573.333313 467.000000,827.166687 467.000000,1081.000000   C311.666656,1081.000000 156.333328,1081.000000 1.000000,1081.000000   C1.000000,721.000000 1.000000,361.000000 1.000000,1.000000   C156.333328,1.000000 311.666656,1.000000 467.000000,1.000000   C467.000000,106.833336 467.000000,212.666672 467.000000,319.000000  M373.278107,201.322906   C373.158356,201.191605 373.038574,201.060287 372.995789,200.087418   C373.664703,193.617813 374.683716,187.155060 374.810608,180.674835   C374.854340,178.439209 372.650665,176.172897 371.524658,173.895355   C370.978516,172.790619 370.247711,171.658691 370.127228,170.484985   C369.810150,167.396896 370.157288,164.203156 369.547699,161.191589   C368.696381,156.985855 366.565002,152.966980 366.179810,148.758438   C365.751648,144.080765 366.577942,139.271118 367.025146,134.534714   C367.605530,128.387436 367.343109,121.919724 369.252563,116.193153   C372.407410,106.731461 370.168823,96.400017 374.827698,87.239143   C375.879211,85.171494 375.159760,81.962196 374.656738,79.395782   C373.648834,74.253296 374.269501,69.674301 377.173126,65.164543   C378.688049,62.811619 379.453888,59.583916 374.941772,59.002964   C372.268311,58.658749 369.551819,58.650539 366.855408,58.479725   C366.631195,58.465523 366.412567,58.363167 366.011414,58.251823   C366.069702,57.229626 366.129700,56.177036 366.222595,54.547924   C374.716187,57.864723 377.249878,48.163208 382.638092,47.863285   C384.246429,45.140255 385.245880,41.738735 386.497620,41.643196   C390.567108,41.332588 394.728943,42.231613 399.134125,42.694298   C397.833984,45.306721 396.957642,47.187054 395.977936,49.011898   C393.786591,53.093781 394.989197,56.635220 398.571991,58.752148   C402.092957,60.832550 403.032227,63.538147 403.053802,67.233017   C403.067749,69.620544 402.810791,72.648270 404.092407,74.267235   C407.610657,78.711525 406.138123,82.045403 402.960693,85.518692   C397.754242,91.209953 398.903870,94.958519 406.219635,97.061417   C409.519409,98.009918 412.740143,99.432632 412.033508,104.033455   C411.884247,105.005333 412.412933,106.081337 412.629211,107.109360   C415.894928,98.805351 413.572205,93.156143 405.589783,91.670151   C407.251709,88.175667 409.881989,85.229057 409.757416,82.403915   C409.433167,75.050629 408.017151,67.730263 406.748718,60.446907   C406.499908,59.018372 405.186798,56.980022 403.972351,56.645088   C396.604340,54.613022 400.970306,50.299789 402.429321,47.423847   C404.927826,42.499058 404.800110,39.949463 400.407196,37.323483   C403.268402,35.108887 406.129639,32.894287 408.774689,30.847013   C408.980835,31.654730 409.520752,32.870823 409.564423,34.104473   C409.713776,38.326557 410.123413,42.612946 409.568878,46.759121   C409.230896,49.286266 407.305298,51.601078 405.740723,54.711037   C409.484314,54.711037 411.699677,54.711037 413.029968,54.711037   C413.029968,42.048576 413.029968,29.676001 413.029968,17.236868   C407.289276,16.740591 404.425140,19.195900 403.983002,25.637018   C403.886047,27.049751 404.095245,29.245821 403.321777,29.726303   C398.228088,32.890614 393.976868,38.197071 386.667572,36.109024   C383.672943,35.253548 381.112701,36.530838 380.970001,40.406845   C380.882538,42.782444 371.933075,51.479954 369.809601,50.818378   C363.391266,48.818703 361.239288,52.168591 360.204285,57.871548   C359.165985,55.989155 358.548615,54.233105 358.020844,52.450520   C356.973846,48.914051 351.961182,46.336494 350.036469,48.606396   C347.989624,51.020382 345.923431,53.874046 345.203278,56.858505   C343.851135,62.461826 340.168365,67.888618 342.948486,74.097076   C343.241241,74.750816 342.937653,75.727448 342.767426,76.523636   C341.625977,81.862831 340.445770,87.193718 339.221405,92.786331   C338.098999,92.949219 336.552734,93.173622 334.690491,93.443886   C334.690491,95.796570 334.690491,97.865379 334.690491,99.805550   C330.088867,99.229515 324.871979,96.661606 322.254425,101.538559   C318.860260,107.862434 313.406921,107.427338 307.937622,108.011772   C304.969452,108.328957 303.587677,106.686256 301.599518,104.636482   C299.049500,102.007370 300.043701,95.910561 294.136932,96.565575   C291.377960,96.871521 288.630920,97.291306 285.868866,97.561546   C283.084503,97.833961 280.290741,98.039108 277.496216,98.167175   C276.015961,98.235016 274.505035,97.893204 273.043365,98.055435   C269.085449,98.494698 265.158142,99.385086 261.195923,99.550117   C258.470398,99.663628 255.706909,98.864952 252.542419,98.414490   C256.030426,95.806259 259.505585,94.074936 261.747681,91.334694   C265.424988,86.840416 268.609894,81.862022 271.433868,76.772324   C274.612885,71.042786 277.066498,64.986198 275.081207,58.085686   C274.725769,56.850239 275.513336,55.324738 275.572510,53.924675   C275.873657,46.801128 282.630920,42.336338 282.859253,34.853645   C283.038605,28.975880 285.447449,23.166143 286.906525,17.158739   C283.201019,16.640554 281.370331,17.755285 280.925720,21.440947   C280.464478,25.264549 279.724243,29.112640 278.569733,32.781261   C276.695557,38.736671 274.384247,44.554497 272.662079,49.312515   C271.153229,48.874817 268.506683,47.846939 268.372406,48.108517   C267.074890,50.636543 266.199463,53.381229 265.203430,56.063999   C267.756409,57.328949 269.594666,58.483765 269.875061,59.938778   C271.281464,67.237160 266.964478,73.286606 264.973022,79.849823   C264.832855,80.311836 264.114410,80.579521 263.711304,80.983871   C261.819153,82.882050 259.016632,84.512337 258.320129,86.784271   C257.612396,89.092766 256.795105,90.099197 254.751877,91.134109   C250.184738,93.447418 246.189590,96.431671 246.954605,102.540825   C247.007568,102.963783 246.572571,103.425499 246.499634,103.890388   C246.174530,105.962898 245.898575,108.043121 245.547226,110.528145   C244.848236,111.272346 242.912567,112.582771 242.185455,114.381714   C241.731110,115.505760 243.098785,117.366257 243.840714,119.429977   C242.326843,127.100487 241.091751,135.734207 238.763779,144.062454   C237.736893,147.736069 238.467667,148.815582 241.651871,149.313934   C241.073837,152.270798 240.698181,155.118103 239.931351,157.855850   C239.158768,160.614105 238.313614,163.436829 236.947296,165.928024   C232.888550,173.328186 229.440414,174.453705 224.957108,169.101608   C221.806213,165.340103 219.070709,167.390030 216.503906,168.370956   C213.833649,169.391403 212.987045,172.060608 212.873291,175.265701   C212.589478,183.262115 212.965271,191.670364 210.499268,199.052444   C209.063950,203.349136 208.630997,207.402771 207.902023,211.655594   C205.448944,225.966812 202.836731,240.256042 199.957382,254.487320   C197.343964,267.404297 194.389648,280.254852 191.418350,293.095978   C189.430145,301.688416 187.205292,310.227692 184.985306,318.764465   C182.321976,329.006195 179.675507,339.255463 176.766113,349.428375   C175.592422,353.532257 173.734955,357.439911 172.200562,361.441467   C170.446854,366.014984 168.402039,370.503784 167.021011,375.187866   C163.746841,386.292999 160.660751,397.214783 154.587814,407.482788   C147.817154,418.930511 143.587524,431.859253 137.912567,443.984558   C134.115768,452.096985 129.818756,459.981934 125.558273,467.867432   C123.880379,470.972992 121.812775,473.892029 119.706467,476.735870   C117.243401,480.061462 114.296715,483.045868 111.995193,486.470856   C105.672859,495.879486 100.271019,505.996490 93.214699,514.798889   C84.783722,525.316101 75.003387,534.750366 65.830711,544.675110   C62.676758,548.087646 59.872986,551.882874 56.409096,554.935730   C51.526604,559.238831 46.214615,563.061279 41.020699,567.002808   C34.919857,571.632568 28.705387,576.113647 22.651735,580.803284   C21.663710,581.568665 21.251181,583.076965 20.572649,584.241882   C21.030275,584.712524 21.487902,585.183228 21.945528,585.653870   C31.710945,581.330139 39.137203,573.192627 48.807343,568.030945   C50.232380,570.816833 52.104595,573.629761 53.173817,576.720398   C56.929676,587.576965 60.590500,598.473694 63.944321,609.459961   C67.501144,621.111206 70.441917,632.952393 74.087265,644.573975   C76.289375,651.594482 79.592850,658.264832 81.904030,665.257019   C84.369644,672.716370 85.717216,680.572632 88.511391,687.889587   C92.562424,698.497803 97.187103,708.914429 102.084122,719.165833   C109.960724,735.654419 114.416519,752.806519 114.119186,771.169373   C114.087318,773.137878 115.219048,775.715637 116.690079,777.017395   C123.604080,783.136292 123.717430,783.013672 120.989891,791.571777   C120.800346,792.166443 120.269928,792.727356 120.278183,793.298523   C120.349854,798.257629 118.047989,803.829041 122.513222,807.818665   C126.378662,811.272339 130.955704,813.919495 135.092224,817.087646   C135.996811,817.780518 136.588165,819.101379 136.949524,820.250671   C140.644455,832.002319 144.064468,843.844299 147.969604,855.524536   C150.645355,863.527832 154.551575,871.148438 156.859329,879.239197   C160.183899,890.894836 165.209549,901.897156 167.096176,914.201721   C169.066849,927.054382 174.652649,939.333130 178.406799,951.937683   C181.793015,963.306824 184.890015,974.763367 188.000977,986.212280   C188.798630,989.147827 188.462036,992.593994 189.873230,995.120300   C193.278580,1001.216736 193.542282,1007.159668 191.752319,1013.782654   C189.403229,1022.474365 192.643814,1030.225830 197.053833,1037.607178   C198.486465,1040.005005 199.585159,1042.602417 201.089783,1045.615479   C188.959839,1046.521729 187.137024,1048.511963 188.650177,1059.284302   C190.222229,1057.660522 191.314819,1056.784180 192.089859,1055.684326   C194.462250,1052.317383 196.499344,1048.975342 201.533249,1048.801636   C203.720657,1048.726196 206.474365,1046.934814 207.833298,1045.086548   C210.053848,1042.065918 211.198364,1038.276489 213.111084,1034.994507   C213.709747,1033.967163 215.552460,1032.737427 216.418243,1032.991089   C218.088364,1033.480469 220.756653,1034.989624 220.733154,1036.024170   C220.654541,1039.485596 219.853012,1043.013794 218.795746,1046.347412   C217.624451,1050.040894 215.867355,1053.548462 214.365326,1057.136963   C214.824249,1057.597412 215.283173,1058.057739 215.742111,1058.518188   C217.444504,1057.486206 220.111816,1056.818848 220.665878,1055.352905   C222.240128,1051.187500 222.924255,1046.689087 224.027527,1042.339233   C224.233444,1041.527222 224.751236,1040.792725 225.137360,1040.028687   C225.749573,1038.817017 227.185181,1037.253784 226.840302,1036.467651   C225.733902,1033.945679 223.970657,1031.711914 221.700302,1028.185669   C222.832169,1024.033081 224.193665,1018.140869 226.052902,1012.410034   C229.530228,1001.691956 227.975342,989.990662 232.913834,979.521423   C235.483292,974.074280 237.212555,968.215210 239.118484,962.474854   C241.133057,956.407166 245.224274,950.886780 243.980789,943.930969   C242.595566,936.182495 241.296631,928.466492 246.178986,921.231201   C247.282120,919.596497 247.555862,917.339111 247.978622,915.319641   C249.436234,908.356689 251.792786,901.785156 256.410736,896.261292   C261.709442,889.923096 265.964783,883.136230 264.931671,874.464905   C264.304108,869.197327 263.926147,863.572754 261.749969,858.892639   C258.378448,851.641541 259.571381,845.399475 262.968262,838.888306   C263.611359,837.655701 264.318878,835.860901 263.883270,834.770203   C262.434692,831.142822 264.418457,829.116211 266.610718,826.854309   C268.921814,824.469727 269.635529,821.867249 268.244873,818.396301   C266.126801,813.109863 264.638519,807.563965 263.035828,802.083557   C262.684540,800.882446 262.637299,799.378540 263.032562,798.211365   C264.453949,794.013672 266.296600,789.955200 267.639893,785.735779   C268.515015,782.986877 267.852295,779.164551 269.531250,777.366272   C274.306244,772.252258 273.516907,766.263672 273.861298,760.295105   C273.961273,758.562256 274.543182,756.721497 275.378937,755.189148   C280.499329,745.800415 285.964172,736.593079 290.854980,727.088928   C292.572693,723.751038 293.924347,719.713562 293.797638,716.052429   C293.584930,709.904846 295.186340,705.166992 300.039246,701.366272   C303.051331,699.007141 303.253662,695.830505 302.647369,692.090271   C301.100159,682.545288 303.745056,674.379517 313.518311,669.997070   C320.777893,666.741760 322.030212,662.179688 320.397766,655.640869   C318.856079,649.465454 318.791779,643.539185 323.365479,637.937866   C329.655243,630.235046 331.324829,620.825012 329.846710,611.196594   C329.074371,606.165833 327.360687,601.286926 323.114441,597.423523   C315.149384,590.176514 315.027283,582.451660 320.401886,572.875671   C325.070099,564.558228 329.888641,555.929810 332.235748,546.819214   C334.453461,538.210938 334.228333,528.767395 333.856812,519.741455   C333.113129,501.675415 336.428558,484.462219 343.114868,467.845154   C345.406494,462.149902 346.190491,455.436646 352.337738,451.815277   C352.945953,451.456970 353.270813,449.515137 352.878418,448.735504   C349.796326,442.612091 350.094055,436.076935 349.900146,429.509430   C349.768707,425.056946 348.906708,420.577698 347.892181,416.222046   C347.451447,414.329926 345.806610,412.718262 344.708649,410.979187   C345.275177,411.041534 345.841675,411.103912 346.408203,411.166260   C347.272888,409.049469 348.344269,406.989288 348.943726,404.799866   C349.536255,402.635834 350.144104,400.279053 349.870667,398.117432   C349.359711,394.078186 349.180420,389.480103 347.073761,386.299835   C344.805145,382.875122 343.381165,377.206055 345.664764,373.679108   C347.259064,371.216736 348.175476,368.217773 348.927551,365.336548   C349.616913,362.695618 349.329071,359.787445 350.099304,357.182587   C351.340607,352.984711 354.534668,349.259399 352.145172,344.356049   C351.687225,343.416290 352.479034,340.938873 353.402679,340.411346   C357.976318,337.799316 356.320984,333.268219 355.751251,330.268311   C352.541168,313.365326 352.878815,296.265839 352.054596,279.232574   C351.987885,277.853668 352.674927,276.441406 352.992096,275.040192   C353.666168,272.062256 354.851807,269.084290 354.868286,266.101044   C354.891815,261.845398 359.008667,256.816376 353.051971,253.348160   C352.981415,253.307068 353.546417,252.258163 353.745300,251.656738   C354.842560,248.338257 356.961334,244.955856 356.784302,241.701218   C356.413849,234.891754 354.829346,228.148331 353.746918,221.399261   C356.143158,220.227219 358.969971,218.844574 362.042175,217.341934   C361.086212,212.886719 363.267517,211.643036 367.539581,211.902267   C370.227356,212.065384 372.974182,211.254913 375.860199,210.858459   C375.829132,206.855072 377.507050,204.899963 381.432281,203.630920   C385.740845,202.237915 389.664337,199.454025 393.507660,196.902679   C395.552368,195.545319 397.072784,193.398148 399.237640,191.191910   C401.058960,196.545959 407.096222,199.238800 415.578979,198.459885   C411.432404,194.635254 408.317688,191.513626 404.905426,188.760834   C403.827484,187.891235 401.953430,188.008453 399.992401,187.574097   C401.102509,186.619217 402.102295,185.873596 402.967346,184.995239   C406.664948,181.240860 412.332153,177.986740 413.525360,173.541946   C415.326416,166.833084 413.995148,159.283340 413.995148,152.090988   C413.452057,152.006836 412.908966,151.922668 412.365875,151.838516   C411.909760,153.698029 411.415314,155.549118 411.004761,157.418640   C409.814362,162.839417 409.938751,168.663574 405.973785,173.215988   C404.238251,175.208679 402.628662,177.310593 400.940826,179.345444   C396.603577,184.574509 392.810699,190.441498 387.728729,194.805725   C383.878265,198.112335 378.378113,199.498001 373.278107,201.322906  z"/>
<path fill="#ffffff" opacity="1.000000" stroke="none" d=" M373.612061,201.738495   C378.378113,199.498001 383.878265,198.112335 387.728729,194.805725   C392.810699,190.441498 396.603577,184.574509 400.940826,179.345444   C402.628662,177.310593 404.238251,175.208679 405.973785,173.215988   C409.938751,168.663574 409.814362,162.839417 411.004761,157.418640   C411.415314,155.549118 411.909760,153.698029 412.365875,151.838516   C412.908966,151.922668 413.452057,152.006836 413.995148,152.090988   C413.995148,159.283340 415.326416,166.833084 413.525360,173.541946   C412.332153,177.986740 406.664948,181.240860 402.967346,184.995239   C402.102295,185.873596 401.102509,186.619217 399.992401,187.574097   C401.953430,188.008453 403.827484,187.891235 404.905426,188.760834   C408.317688,191.513626 411.432404,194.635254 415.578979,198.459885   C407.096222,199.238800 401.058960,196.545959 399.237640,191.191910   C397.072784,193.398148 395.552368,195.545319 393.507660,196.902679   C389.664337,199.454025 385.740845,202.237915 381.432281,203.630920   C377.507050,204.899963 375.829132,206.855072 375.860199,210.858459   C372.974182,211.254913 370.227356,212.065384 367.539581,211.902267   C363.267517,211.643036 361.086212,212.886719 362.042175,217.341934   C358.969971,218.844574 356.143158,220.227219 353.746918,221.399261   C354.829346,228.148331 356.413849,234.891754 356.784302,241.701218   C356.961334,244.955856 354.842560,248.338257 353.745300,251.656738   C353.546417,252.258163 352.981415,253.307068 353.051971,253.348160   C359.008667,256.816376 354.891815,261.845398 354.868286,266.101044   C354.851807,269.084290 353.666168,272.062256 352.992096,275.040192   C352.674927,276.441406 351.987885,277.853668 352.054596,279.232574   C352.878815,296.265839 352.541168,313.365326 355.751251,330.268311   C356.320984,333.268219 357.976318,337.799316 353.402679,340.411346   C352.479034,340.938873 351.687225,343.416290 352.145172,344.356049   C354.534668,349.259399 351.340607,352.984711 350.099304,357.182587   C349.329071,359.787445 349.616913,362.695618 348.927551,365.336548   C348.175476,368.217773 347.259064,371.216736 345.664764,373.679108   C343.381165,377.206055 344.805145,382.875122 347.073761,386.299835   C349.180420,389.480103 349.359711,394.078186 349.870667,398.117432   C350.144104,400.279053 349.536255,402.635834 348.943726,404.799866   C348.344269,406.989288 347.272888,409.049469 346.408203,411.166260   C345.841675,411.103912 345.275177,411.041534 344.708649,410.979187   C345.806610,412.718262 347.451447,414.329926 347.892181,416.222046   C348.906708,420.577698 349.768707,425.056946 349.900146,429.509430   C350.094055,436.076935 349.796326,442.612091 352.878418,448.735504   C353.270813,449.515137 352.945953,451.456970 352.337738,451.815277   C346.190491,455.436646 345.406494,462.149902 343.114868,467.845154   C336.428558,484.462219 333.113129,501.675415 333.856812,519.741455   C334.228333,528.767395 334.453461,538.210938 332.235748,546.819214   C329.888641,555.929810 325.070099,564.558228 320.401886,572.875671   C315.027283,582.451660 315.149384,590.176514 323.114441,597.423523   C327.360687,601.286926 329.074371,606.165833 329.846710,611.196594   C331.324829,620.825012 329.655243,630.235046 323.365479,637.937866   C318.791779,643.539185 318.856079,649.465454 320.397766,655.640869   C322.030212,662.179688 320.777893,666.741760 313.518311,669.997070   C303.745056,674.379517 301.100159,682.545288 302.647369,692.090271   C303.253662,695.830505 303.051331,699.007141 300.039246,701.366272   C295.186340,705.166992 293.584930,709.904846 293.797638,716.052429   C293.924347,719.713562 292.572693,723.751038 290.854980,727.088928   C285.964172,736.593079 280.499329,745.800415 275.378937,755.189148   C274.543182,756.721497 273.961273,758.562256 273.861298,760.295105   C273.516907,766.263672 274.306244,772.252258 269.531250,777.366272   C267.852295,779.164551 268.515015,782.986877 267.639893,785.735779   C266.296600,789.955200 264.453949,794.013672 263.032562,798.211365   C262.637299,799.378540 262.684540,800.882446 263.035828,802.083557   C264.638519,807.563965 266.126801,813.109863 268.244873,818.396301   C269.635529,821.867249 268.921814,824.469727 266.610718,826.854309   C264.418457,829.116211 262.434692,831.142822 263.883270,834.770203   C264.318878,835.860901 263.611359,837.655701 262.968262,838.888306   C259.571381,845.399475 258.378448,851.641541 261.749969,858.892639   C263.926147,863.572754 264.304108,869.197327 264.931671,874.464905   C265.964783,883.136230 261.709442,889.923096 256.410736,896.261292   C251.792786,901.785156 249.436234,908.356689 247.978622,915.319641   C247.555862,917.339111 247.282120,919.596497 246.178986,921.231201   C241.296631,928.466492 242.595566,936.182495 243.980789,943.930969   C245.224274,950.886780 241.133057,956.407166 239.118484,962.474854   C237.212555,968.215210 235.483292,974.074280 232.913834,979.521423   C227.975342,989.990662 229.530228,1001.691956 226.052902,1012.410034   C224.193665,1018.140869 222.832169,1024.033081 221.700302,1028.185669   C223.970657,1031.711914 225.733902,1033.945679 226.840302,1036.467651   C227.185181,1037.253784 225.749573,1038.817017 225.137360,1040.028687   C224.751236,1040.792725 224.233444,1041.527222 224.027527,1042.339233   C222.924255,1046.689087 222.240128,1051.187500 220.665878,1055.352905   C220.111816,1056.818848 217.444504,1057.486206 215.742111,1058.518188   C215.283173,1058.057739 214.824249,1057.597412 214.365326,1057.136963   C215.867355,1053.548462 217.624451,1050.040894 218.795746,1046.347412   C219.853012,1043.013794 220.654541,1039.485596 220.733154,1036.024170   C220.756653,1034.989624 218.088364,1033.480469 216.418243,1032.991089   C215.552460,1032.737427 213.709747,1033.967163 213.111084,1034.994507   C211.198364,1038.276489 210.053848,1042.065918 207.833298,1045.086548   C206.474365,1046.934814 203.720657,1048.726196 201.533249,1048.801636   C196.499344,1048.975342 194.462250,1052.317383 192.089859,1055.684326   C191.314819,1056.784180 190.222229,1057.660522 188.650177,1059.284302   C187.137024,1048.511963 188.959839,1046.521729 201.089783,1045.615479   C199.585159,1042.602417 198.486465,1040.005005 197.053833,1037.607178   C192.643814,1030.225830 189.403229,1022.474365 191.752319,1013.782654   C193.542282,1007.159668 193.278580,1001.216736 189.873230,995.120300   C188.462036,992.593994 188.798630,989.147827 188.000977,986.212280   C184.890015,974.763367 181.793015,963.306824 178.406799,951.937683   C174.652649,939.333130 169.066849,927.054382 167.096176,914.201721   C165.209549,901.897156 160.183899,890.894836 156.859329,879.239197   C154.551575,871.148438 150.645355,863.527832 147.969604,855.524536   C144.064468,843.844299 140.644455,832.002319 136.949524,820.250671   C136.588165,819.101379 135.996811,817.780518 135.092224,817.087646   C130.955704,813.919495 126.378662,811.272339 122.513222,807.818665   C118.047989,803.829041 120.349854,798.257629 120.278183,793.298523   C120.269928,792.727356 120.800346,792.166443 120.989891,791.571777   C123.717430,783.013672 123.604080,783.136292 116.690079,777.017395   C115.219048,775.715637 114.087318,773.137878 114.119186,771.169373   C114.416519,752.806519 109.960724,735.654419 102.084122,719.165833   C97.187103,708.914429 92.562424,698.497803 88.511391,687.889587   C85.717216,680.572632 84.369644,672.716370 81.904030,665.257019   C79.592850,658.264832 76.289375,651.594482 74.087265,644.573975   C70.441917,632.952393 67.501144,621.111206 63.944321,609.459961   C60.590500,598.473694 56.929676,587.576965 53.173817,576.720398   C52.104595,573.629761 50.232380,570.816833 48.807343,568.030945   C39.137203,573.192627 31.710945,581.330139 21.945528,585.653870   C21.487902,585.183228 21.030275,584.712524 20.572649,584.241882   C21.251181,583.076965 21.663710,581.568665 22.651735,580.803284   C28.705387,576.113647 34.919857,571.632568 41.020699,567.002808   C46.214615,563.061279 51.526604,559.238831 56.409096,554.935730   C59.872986,551.882874 62.676758,548.087646 65.830711,544.675110   C75.003387,534.750366 84.783722,525.316101 93.214699,514.798889   C100.271019,505.996490 105.672859,495.879486 111.995193,486.470856   C114.296715,483.045868 117.243401,480.061462 119.706467,476.735870   C121.812775,473.892029 123.880379,470.972992 125.558273,467.867432   C129.818756,459.981934 134.115768,452.096985 137.912567,443.984558   C143.587524,431.859253 147.817154,418.930511 154.587814,407.482788   C160.660751,397.214783 163.746841,386.292999 167.021011,375.187866   C168.402039,370.503784 170.446854,366.014984 172.200562,361.441467   C173.734955,357.439911 175.592422,353.532257 176.766113,349.428375   C179.675507,339.255463 182.321976,329.006195 184.985306,318.764465   C187.205292,310.227692 189.430145,301.688416 191.418350,293.095978   C194.389648,280.254852 197.343964,267.404297 199.957382,254.487320   C202.836731,240.256042 205.448944,225.966812 207.902023,211.655594   C208.630997,207.402771 209.063950,203.349136 210.499268,199.052444   C212.965271,191.670364 212.589478,183.262115 212.873291,175.265701   C212.987045,172.060608 213.833649,169.391403 216.503906,168.370956   C219.070709,167.390030 221.806213,165.340103 224.957108,169.101608   C229.440414,174.453705 232.888550,173.328186 236.947296,165.928024   C238.313614,163.436829 239.158768,160.614105 239.931351,157.855850   C240.698181,155.118103 241.073837,152.270798 241.651871,149.313934   C238.467667,148.815582 237.736893,147.736069 238.763779,144.062454   C241.091751,135.734207 242.326843,127.100487 243.840714,119.429977   C243.098785,117.366257 241.731110,115.505760 242.185455,114.381714   C242.912567,112.582771 244.848236,111.272346 245.547226,110.528145   C245.898575,108.043121 246.174530,105.962898 246.499634,103.890388   C246.572571,103.425499 247.007568,102.963783 246.954605,102.540825   C246.189590,96.431671 250.184738,93.447418 254.751877,91.134109   C256.795105,90.099197 257.612396,89.092766 258.320129,86.784271   C259.016632,84.512337 261.819153,82.882050 263.711304,80.983871   C264.114410,80.579521 264.832855,80.311836 264.973022,79.849823   C266.964478,73.286606 271.281464,67.237160 269.875061,59.938778   C269.594666,58.483765 267.756409,57.328949 265.203430,56.063999   C266.199463,53.381229 267.074890,50.636543 268.372406,48.108517   C268.506683,47.846939 271.153229,48.874817 272.662079,49.312515   C274.384247,44.554497 276.695557,38.736671 278.569733,32.781261   C279.724243,29.112640 280.464478,25.264549 280.925720,21.440947   C281.370331,17.755285 283.201019,16.640554 286.906525,17.158739   C285.447449,23.166143 283.038605,28.975880 282.859253,34.853645   C282.630920,42.336338 275.873657,46.801128 275.572510,53.924675   C275.513336,55.324738 274.725769,56.850239 275.081207,58.085686   C277.066498,64.986198 274.612885,71.042786 271.433868,76.772324   C268.609894,81.862022 265.424988,86.840416 261.747681,91.334694   C259.505585,94.074936 256.030426,95.806259 252.542419,98.414490   C255.706909,98.864952 258.470398,99.663628 261.195923,99.550117   C265.158142,99.385086 269.085449,98.494698 273.043365,98.055435   C274.505035,97.893204 276.015961,98.235016 277.496216,98.167175   C280.290741,98.039108 283.084503,97.833961 285.868866,97.561546   C288.630920,97.291306 291.377960,96.871521 294.136932,96.565575   C300.043701,95.910561 299.049500,102.007370 301.599518,104.636482   C303.587677,106.686256 304.969452,108.328957 307.937622,108.011772   C313.406921,107.427338 318.860260,107.862434 322.254425,101.538559   C324.871979,96.661606 330.088867,99.229515 334.690491,99.805550   C334.690491,97.865379 334.690491,95.796570 334.690491,93.443886   C336.552734,93.173622 338.098999,92.949219 339.221405,92.786331   C340.445770,87.193718 341.625977,81.862831 342.767426,76.523636   C342.937653,75.727448 343.241241,74.750816 342.948486,74.097076   C340.168365,67.888618 343.851135,62.461826 345.203278,56.858505   C345.923431,53.874046 347.989624,51.020382 350.036469,48.606396   C351.961182,46.336494 356.973846,48.914051 358.020844,52.450520   C358.548615,54.233105 359.165985,55.989155 360.204285,57.871548   C361.239288,52.168591 363.391266,48.818703 369.809601,50.818378   C371.933075,51.479954 380.882538,42.782444 380.970001,40.406845   C381.112701,36.530838 383.672943,35.253548 386.667572,36.109024   C393.976868,38.197071 398.228088,32.890614 403.321777,29.726303   C404.095245,29.245821 403.886047,27.049751 403.983002,25.637018   C404.425140,19.195900 407.289276,16.740591 413.029968,17.236868   C413.029968,29.676001 413.029968,42.048576 413.029968,54.711037   C411.699677,54.711037 409.484314,54.711037 405.740723,54.711037   C407.305298,51.601078 409.230896,49.286266 409.568878,46.759121   C410.123413,42.612946 409.713776,38.326557 409.564423,34.104473   C409.520752,32.870823 408.980835,31.654730 408.774689,30.847013   C406.129639,32.894287 403.268402,35.108887 400.408295,37.321480   C404.800110,39.949463 404.927826,42.499058 402.429321,47.423847   C400.970306,50.299789 396.604340,54.613022 403.972351,56.645088   C405.186798,56.980022 406.499908,59.018372 406.748718,60.446907   C408.017151,67.730263 409.433167,75.050629 409.757416,82.403915   C409.881989,85.229057 407.251709,88.175667 405.589783,91.670151   C413.572205,93.156143 415.894928,98.805351 412.629211,107.109360   C412.412933,106.081337 411.884247,105.005333 412.033508,104.033455   C412.740143,99.432632 409.519409,98.009918 406.219635,97.061417   C398.903870,94.958519 397.754242,91.209953 402.960693,85.518692   C406.138123,82.045403 407.610657,78.711525 404.092407,74.267235   C402.810791,72.648270 403.067749,69.620544 403.053802,67.233017   C403.032227,63.538147 402.092957,60.832550 398.571991,58.752148   C394.989197,56.635220 393.786591,53.093781 395.977936,49.011898   C396.957642,47.187054 397.833984,45.306721 399.134125,42.694298   C394.728943,42.231613 390.567108,41.332588 386.497620,41.643196   C385.245880,41.738735 384.246429,45.140255 382.638092,47.863285   C377.249878,48.163208 374.716187,57.864723 366.222595,54.547924   C366.129700,56.177036 366.069702,57.229626 366.011414,58.251823   C366.412567,58.363167 366.631195,58.465523 366.855408,58.479725   C369.551819,58.650539 372.268311,58.658749 374.941772,59.002964   C379.453888,59.583916 378.688049,62.811619 377.173126,65.164543   C374.269501,69.674301 373.648834,74.253296 374.656738,79.395782   C375.159760,81.962196 375.879211,85.171494 374.827698,87.239143   C370.168823,96.400017 372.407410,106.731461 369.252563,116.193153   C367.343109,121.919724 367.605530,128.387436 367.025146,134.534714   C366.577942,139.271118 365.751648,144.080765 366.179810,148.758438   C366.565002,152.966980 368.696381,156.985855 369.547699,161.191589   C370.157288,164.203156 369.810150,167.396896 370.127228,170.484985   C370.247711,171.658691 370.978516,172.790619 371.524658,173.895355   C372.650665,176.172897 374.854340,178.439209 374.810608,180.674835   C374.683716,187.155060 373.664703,193.617813 372.602051,200.690414   C372.208313,202.990875 372.208313,204.688339 372.208313,206.385803   C372.371002,206.371567 372.533661,206.357315 372.696350,206.343079   C373.001587,204.808212 373.306824,203.273346 373.612061,201.738495  M367.801025,63.767876   C360.301270,64.312279 354.975525,60.849838 352.706360,54.185432   C350.757690,58.822060 348.660217,63.562870 348.189484,68.460052   C347.617035,74.415726 349.482056,80.630875 345.117706,85.994720   C344.455811,86.808197 345.121887,88.612488 344.940491,89.926285   C344.616669,92.271645 344.114929,94.592445 343.707184,96.816559   C341.953430,96.995773 340.531311,97.141090 339.158722,97.281349   C338.856812,104.518028 338.322235,104.880348 331.585846,103.262352   C328.074432,102.418953 325.176880,102.735779 323.895752,107.019974   C323.528717,108.247383 321.786957,109.478714 320.423706,109.907516   C317.517792,110.821533 314.413910,111.082039 311.449921,111.840065   C302.902252,114.026077 295.201050,108.595390 294.712250,100.352623   C288.295258,101.292717 281.154541,100.700256 275.870819,103.550392   C269.990143,106.722511 264.822845,102.310715 259.379822,104.587265   C257.441406,105.398003 254.239502,103.187859 252.428848,102.614555   C249.604294,114.436440 246.864548,125.194000 244.554581,136.043076   C243.934448,138.955566 244.488037,142.158646 244.756470,145.205994   C244.950394,147.407761 246.351089,149.777985 245.845413,151.716095   C244.200867,158.019089 242.362778,164.346115 239.785202,170.312210   C236.605270,177.672455 229.162308,178.759735 222.954849,173.576508   C221.678085,172.510422 219.576965,172.431610 217.980209,171.936325   C217.980209,175.018768 218.476028,177.085251 217.897781,178.786713   C214.726166,188.119080 217.231094,198.283920 212.386673,207.675156   C209.367981,213.527084 210.115219,221.283432 208.981491,228.153625   C206.323898,244.258072 203.938675,260.422028 200.698151,276.410919   C198.279648,288.343994 194.840378,300.080933 191.588669,311.831299   C188.657288,322.424133 185.420273,332.933960 182.212280,343.448151   C179.225067,353.238770 176.201385,363.020905 172.984268,372.737427   C171.627472,376.835327 169.538086,380.688171 168.133545,384.773376   C166.426437,389.738647 165.488815,394.995636 163.497437,399.829437   C160.769943,406.450073 157.286423,412.755524 154.289597,419.270874   C153.167191,421.711060 152.755478,424.485107 151.581741,426.893463   C147.160782,435.964996 142.416702,444.880280 138.060760,453.981934   C132.185257,466.258636 125.814514,478.169281 116.405899,488.214203   C114.738258,489.994659 112.350983,492.193634 115.370468,494.827637   C119.565994,498.487671 123.499092,502.640320 128.216888,505.455200   C132.822601,508.203156 131.066833,510.694519 129.046310,513.290344   C127.580345,515.173706 125.513474,516.691101 123.477859,518.005005   C120.559479,519.888733 116.942039,520.920654 114.473129,523.226440   C106.761642,530.428345 99.665710,538.292053 91.913971,545.447327   C85.718010,551.166443 84.362694,557.913574 86.324379,565.529419   C87.595123,570.462891 86.651062,574.018738 82.084122,576.474182   C80.418785,577.369568 77.728859,578.158447 77.415855,579.456299   C76.108879,584.876099 72.063225,586.420410 67.659637,588.338196   C65.919067,589.096191 63.822247,592.497620 64.214447,594.139587   C67.155846,606.454285 70.396156,618.716736 74.109200,630.821777   C77.106407,640.593201 81.251160,650.012268 84.255722,659.781799   C90.483978,680.033447 97.759377,699.840881 106.922836,718.968079   C109.716179,724.798706 111.894707,730.960876 113.912270,737.116150   C116.054573,743.652222 117.678101,750.358643 119.507690,756.996338   C119.720932,757.770081 120.143700,758.710571 119.896172,759.352844   C116.565605,767.993286 120.914734,774.306519 125.924171,780.608337   C127.011536,781.976257 127.629333,784.375854 127.300209,786.074890   C126.607399,789.651245 125.061104,793.053894 124.019630,796.573608   C122.975487,800.102173 123.932976,803.114441 126.891853,805.366699   C128.563522,806.639160 130.421234,807.679810 132.021667,809.030457   C134.748688,811.331909 138.658447,813.307251 139.756409,816.275879   C144.302094,828.566345 147.803391,841.238159 152.048248,853.646790   C154.314392,860.271179 157.545471,866.561340 159.919144,873.154236   C162.398087,880.039551 164.303741,887.129211 166.583221,894.089172   C168.739517,900.672974 171.917908,907.003479 171.043762,914.269775   C170.934265,915.179993 171.298569,916.187317 171.595200,917.100281   C175.951035,930.506470 180.803177,943.774353 184.549469,957.347839   C187.228867,967.055786 192.894516,976.020508 192.128830,986.682678   C191.982620,988.718506 192.734879,991.219299 193.935577,992.882629   C199.299591,1000.313965 198.902847,1008.129028 196.225464,1016.262634   C195.977463,1017.016113 195.733841,1017.922424 195.922333,1018.644348   C197.563553,1024.929565 196.973099,1032.065918 203.019989,1036.712036   C203.958282,1037.432983 204.008621,1039.309570 204.402527,1040.456421   C208.238876,1035.689819 208.796555,1027.372192 217.401825,1027.677979   C218.968323,1022.086548 220.808517,1016.750610 221.918060,1011.266785   C223.551819,1003.192261 224.639053,995.007996 226.013809,986.879700   C226.469803,984.183472 226.749832,981.383850 227.715546,978.863342   C229.581802,973.992615 231.998856,969.335754 233.958923,964.497559   C235.582138,960.490845 237.166245,956.424072 238.218506,952.245605   C238.960327,949.300049 238.922882,946.125732 238.985870,943.048462   C239.118820,936.554138 237.441879,929.454102 239.541641,923.712097   C242.195251,916.455627 246.394165,909.773743 247.137268,901.795349   C247.200043,901.121155 248.148453,900.562317 248.584549,899.884888   C252.140228,894.362793 255.768646,888.884155 259.185425,883.276794   C263.148071,876.773621 260.110016,870.341125 258.452850,864.041443   C256.490723,856.582520 254.774902,849.194702 257.019958,841.520447   C257.685638,839.244995 259.259338,836.965332 259.104950,834.780273   C258.843994,831.087830 259.292786,828.120239 261.990570,825.362000   C263.290497,824.032776 264.779846,821.616211 264.402069,820.151367   C263.142822,815.268616 260.664398,810.695190 259.462067,805.804382   C258.618896,802.374634 257.752197,797.892029 259.239471,795.151306   C263.308624,787.652893 264.782196,779.499756 266.897064,771.509644   C267.839783,767.947937 267.265747,763.994812 268.128357,760.398804   C268.821259,757.510071 270.560791,754.849182 271.976624,752.161377   C276.276520,743.998779 280.825653,735.961609 284.911285,727.694580   C287.009155,723.449707 289.511932,718.874023 289.720825,714.350464   C290.036682,707.509460 291.530121,701.865601 296.935120,697.456604   C297.816772,696.737366 298.640106,695.401489 298.696625,694.309448   C298.953888,689.337646 297.988647,684.097351 299.248657,679.436279   C300.714508,674.013794 303.112579,668.642822 309.910645,666.757935   C313.045105,665.888855 317.067139,663.876099 316.551453,659.085205   C316.188507,655.713623 315.245880,652.386902 315.092834,649.016052   C314.978882,646.505981 315.150024,643.690674 316.192383,641.482544   C318.222290,637.182495 321.394440,633.407654 323.305054,629.068176   C328.004028,618.395691 327.736450,609.740662 319.881622,601.481934   C310.687927,591.815369 309.316498,580.516296 317.178284,569.439697   C326.845032,555.820129 330.565521,540.770142 329.238312,524.002869   C325.457092,524.002869 321.304535,523.841003 317.177124,524.092163   C315.764160,524.178162 314.316254,525.151123 313.058136,525.981995   C311.104095,527.272461 309.295197,528.783447 307.431274,530.209473   C303.050812,533.560913 298.537781,536.756042 294.330841,540.312988   C289.134064,544.706848 284.230347,549.446045 279.101166,553.922668   C278.328278,554.597290 277.039185,554.753479 275.953644,554.982971   C272.796570,555.650513 269.611053,556.184265 266.456116,556.861023   C261.775574,557.865051 256.906281,560.368408 252.479553,559.728394   C239.395050,557.836426 226.578827,559.337830 213.777435,561.182007   C205.610580,562.358459 203.496399,561.534180 199.234833,554.830688   C194.652679,547.622925 198.614166,538.448792 202.627838,531.806702   C205.525101,527.012085 209.372284,522.361450 210.636566,517.125244   C212.038162,511.320465 210.872726,504.919342 211.058090,498.784912   C211.125061,496.568909 211.215866,493.891693 212.423416,492.258881   C216.011200,487.407501 220.128845,482.943665 224.122833,478.401733   C224.713654,477.729828 225.750595,477.444916 226.590088,476.997772   C233.714966,473.202789 241.600479,470.456818 245.838791,462.725464   C246.374847,461.747589 247.367172,460.940430 248.304642,460.274506   C255.875824,454.896637 263.750580,450.360107 274.151459,452.094940   C274.151459,448.627289 274.151459,445.542877 274.151459,441.979492   C261.310272,441.634277 249.687012,438.392731 239.371429,431.166992   C236.386429,438.001801 236.386429,438.001831 228.971436,438.002319   C226.304794,438.002502 223.580917,438.337738 220.989731,437.895599   C218.943069,437.546326 215.785461,436.650635 215.345825,435.282684   C214.098679,431.402130 213.941055,427.159760 213.554245,423.041107   C213.529205,422.774597 215.171005,422.241547 216.082809,422.016144   C219.953537,421.059174 223.841400,420.171509 227.874237,419.222961   C227.874237,416.788055 227.874237,414.150146 227.874237,411.539185   C223.709396,410.090759 217.986740,400.124756 219.023758,396.228607   C219.106689,395.917053 219.130005,395.508972 219.338867,395.323364   C225.296616,390.029938 223.436539,383.017120 222.814941,376.690491   C222.235580,370.793579 219.592133,365.325775 220.145096,358.953461   C220.615082,353.536957 219.141220,347.851837 215.011703,343.388947   C212.765472,340.961395 213.901443,335.151093 216.330963,333.978271   C222.888458,330.812653 227.421463,325.920471 229.241943,318.518158   C225.844223,317.351807 223.749802,316.139923 225.787170,312.139252   C226.968597,309.819366 226.789383,306.741882 226.962326,303.988983   C227.194077,300.300140 225.965698,295.856995 232.094345,295.880676   C232.399002,295.881866 232.537674,294.438812 233.043793,294.013794   C235.990372,291.539368 232.044250,289.254517 233.006531,286.606476   C235.021088,281.062805 235.926056,275.074402 238.301514,269.718719   C239.760162,266.430023 242.620377,262.346710 245.680618,261.449707   C254.928375,258.739044 261.106110,252.452896 267.601379,246.123245   C269.670349,244.107040 272.852539,242.813324 275.733215,242.247696   C276.960022,242.006821 278.826233,244.375351 280.219452,245.743790   C285.532867,250.962692 290.702545,254.776199 299.104950,251.265213   C304.777374,248.894958 311.021973,251.661850 316.371918,254.347275   C317.914276,255.121475 318.145538,258.511841 318.971008,260.705353   C319.084442,261.006805 319.211670,261.318420 319.241089,261.633820   C319.574829,265.214752 320.172424,268.801086 320.124664,272.378326   C320.084595,275.376953 320.097687,278.249939 323.551056,278.915039   C330.453125,280.244324 337.431061,281.179840 344.731964,282.333984   C345.016876,281.364838 345.573975,279.715576 345.976929,278.029510   C346.370483,276.382690 346.153534,274.399811 347.012054,273.096283   C348.513794,270.816101 350.112427,260.411194 348.597504,258.175720   C346.591400,255.215408 343.790802,252.472366 347.908203,249.052673   C348.131561,248.867172 347.902222,247.652939 347.525482,247.302032   C342.894104,242.987991 347.842621,243.334656 349.639771,242.153290   C350.096344,240.092010 351.101990,238.284134 351.838959,236.372681   C352.067017,235.781113 351.641998,234.288010 351.384827,234.255829   C347.001984,233.707397 349.552490,230.543076 349.214600,228.541000   C349.101593,227.871353 349.942688,226.719772 349.674957,226.445801   C346.243622,222.934128 348.597900,219.504410 349.521088,215.586365   C357.383026,219.042801 356.711609,211.364975 359.153961,209.075089   C357.725616,205.948318 356.533722,203.339111 355.284088,200.603546   C359.358795,199.321320 363.814545,192.777176 363.994904,189.109909   C364.317780,182.544724 363.787811,175.775864 365.255432,169.474350   C366.712982,163.216171 364.342072,159.557281 360.395996,155.614746   C358.070770,153.291626 357.977661,150.292023 358.441010,146.697830   C359.452423,138.852295 363.163086,130.287735 355.169678,123.497910   C354.320068,122.776230 353.751526,120.203117 354.286652,119.618446   C357.785889,115.795341 358.680298,108.876251 365.043945,109.603233   C365.400757,106.772446 365.464447,104.292686 366.057648,101.946823   C367.575531,95.944145 369.378754,90.014015 370.942444,84.022148   C371.222290,82.949844 370.966278,81.714050 370.847015,80.565239   C370.275665,75.061722 369.666229,69.562157 369.631836,63.868721   C369.671143,63.331154 369.710419,62.793583 369.749695,62.256012   C369.308929,62.578289 368.868134,62.900566 367.801025,63.767876  M315.992065,501.284210   C315.016907,495.352875 316.245789,490.145477 319.437347,484.836823   C321.892273,480.753448 322.418335,475.543274 324.062775,470.927002   C324.989746,468.324921 326.230530,465.774445 327.715332,463.446472   C329.581879,460.519836 332.573059,458.124817 333.772308,454.999084   C335.888580,449.483337 339.037659,446.774200 345.025543,447.974274   C345.230011,448.015228 345.525452,447.602448 346.656250,446.702911   C345.403442,438.034332 343.984467,428.813660 342.777893,419.565308   C342.312195,415.995667 341.246429,411.986328 342.343475,408.835052   C344.892700,401.512421 344.332123,394.619476 342.214752,387.471100   C340.336517,381.130035 340.127380,374.761902 343.034210,368.558441   C343.506470,367.550629 343.768829,366.400513 343.908875,365.288574   C344.517792,360.453186 344.370880,355.408234 345.731140,350.803558   C349.595093,337.723450 349.745605,324.617035 348.201447,311.197815   C347.382629,304.082367 348.056427,296.795166 348.056427,288.553711   C340.876709,286.613403 333.721497,283.989502 326.337891,282.863892   C317.651459,281.539642 314.519104,278.401062 316.235870,269.696747   C317.797363,261.779541 307.669067,251.897614 300.219666,254.624985   C293.608917,257.045319 286.785736,256.204956 280.620087,252.370621   C278.218323,250.876999 275.700500,247.753815 273.602051,248.041962   C270.893524,248.413879 268.520569,251.422165 266.066254,253.374512   C264.766602,254.408310 263.713348,255.774887 262.353333,256.705475   C258.260315,259.506134 254.053314,262.139557 249.927444,264.893188   C247.886200,266.255554 244.854630,267.329163 244.123352,269.241669   C241.640549,275.734802 239.668335,282.471741 238.118729,289.256622   C237.033768,294.007141 235.958069,298.397125 231.394073,301.056396   C230.745529,301.434265 230.021286,302.468781 230.075562,303.139191   C230.436859,307.602417 228.557495,312.354095 232.205704,316.463623   C233.133041,317.508240 232.975372,319.976257 232.605835,321.631653   C231.077377,328.478394 226.466217,333.216492 220.807175,336.772888   C218.056412,338.501617 217.535156,339.854645 219.229782,342.473206   C221.912872,346.619110 224.644730,350.659271 224.138138,356.124359   C223.838226,359.359650 224.690247,362.694031 224.945633,365.989929   C225.598373,374.414215 227.083206,382.896515 226.562561,391.251373   C226.128036,398.224426 225.601517,403.953400 233.244919,407.309479   C234.681610,407.940308 235.466339,410.801147 235.895874,412.775696   C236.345932,414.844574 236.263275,417.122559 235.956543,419.243011   C235.360687,423.361969 237.244614,424.670807 241.056656,425.107971   C242.982880,425.328888 245.283218,426.524323 246.486542,428.023773   C250.205078,432.657471 255.178558,434.865631 260.652924,436.031158   C266.780121,437.335754 272.992157,438.291107 279.203125,439.134033   C282.742126,439.614349 284.011261,441.751038 283.019592,444.607788   C282.536407,445.999542 280.067566,446.701935 278.382568,447.790680   C278.386932,447.832520 278.389740,448.164459 278.459717,448.481567   C278.973541,450.810760 280.654236,453.812469 279.773010,455.317230   C278.161530,458.068848 275.091064,458.165466 271.471100,457.509247   C267.714813,456.828308 262.859772,457.434418 259.661591,459.395752   C251.859482,464.180603 244.806091,470.171356 237.309387,475.476074   C234.096939,477.749207 229.943008,478.934998 227.239487,481.637756   C219.672821,489.202271 213.782791,497.628571 213.624252,509.223541   C213.486588,519.293396 211.322189,529.044495 204.436279,537.130432   C203.100021,538.699585 202.670731,541.007996 201.626068,542.864563   C198.406708,548.585571 205.877838,559.342407 212.772141,558.082703   C222.352921,556.332214 232.222031,556.172791 241.963226,555.283264   C249.225601,554.620056 256.519623,554.141235 263.725067,553.076416   C268.187714,552.416870 273.354736,551.948608 276.742920,549.428223   C288.150726,540.942322 298.948364,531.629211 309.842255,522.469421   C311.023315,521.476318 311.529358,519.480652 311.973816,517.848083   C313.394867,512.627930 314.639465,507.359680 315.992065,501.284210  M115.497421,517.930786   C119.779083,515.635193 124.896774,514.269470 126.184402,508.009277   C121.441345,504.019684 116.567268,499.919922 111.548004,495.698029   C108.137238,500.565765 105.418884,505.385895 101.819214,509.419556   C86.442459,526.649963 70.884995,543.721802 55.195030,560.667725   C52.132023,563.975952 50.710796,566.348999 53.727852,570.729980   C56.200336,574.320190 57.102901,578.985779 58.741100,583.159058   C59.441269,584.942688 60.242294,586.686707 61.369366,589.316406   C68.287514,583.477783 74.747696,578.357971 80.731079,572.731262   C82.143974,571.402588 82.858887,568.132874 82.345909,566.158508   C79.859009,556.587036 82.223183,548.848389 89.501694,542.205811   C98.088699,534.369202 106.406837,526.237915 115.497421,517.930786  M322.500580,487.638977   C318.664948,490.999664 316.480988,494.658630 319.673798,499.764984   C320.227478,500.650513 319.924042,502.322937 319.559143,503.488770   C317.886566,508.832855 316.051392,514.126038 313.902985,520.548401   C320.805878,520.959351 325.954041,521.265808 331.567352,521.599976   C331.567352,518.495972 331.376862,516.171692 331.600067,513.887756   C332.615662,503.496216 332.934387,492.944305 335.079468,482.782715   C337.007294,473.650177 341.091431,464.984222 343.956024,456.026642   C344.424072,454.563019 343.504120,452.655579 343.225708,450.953278   C341.564392,451.938751 339.507263,452.585449 338.317932,453.974854   C335.102966,457.730896 332.235260,461.786560 329.279419,465.760284   C328.494446,466.815582 327.573486,467.921814 327.253967,469.145386   C325.709045,475.061584 324.347961,481.025787 322.500580,487.638977  M368.997650,195.586731   C370.538757,189.904861 372.919159,184.234024 368.897308,177.994339   C369.589813,186.574844 368.447449,194.423996 363.865051,201.226456   C360.909821,205.613434 363.997894,205.329239 366.562561,206.054001   C367.420013,202.669235 368.208740,199.555679 368.997650,195.586731  M361.578613,118.951698   C360.632935,120.010780 359.687256,121.069862 358.784332,122.081062   C360.299927,123.824234 361.526672,125.235184 363.409119,127.400284   C363.409119,123.214180 363.409119,119.858391 363.409119,116.421722   C362.937256,117.120514 362.509705,117.753647 361.578613,118.951698  z"/>
<path fill="transparent" opacity="1.000000" stroke="none" d=" M369.070312,64.061195   C369.666229,69.562157 370.275665,75.061722 370.847015,80.565239   C370.966278,81.714050 371.222290,82.949844 370.942444,84.022148   C369.378754,90.014015 367.575531,95.944145 366.057648,101.946823   C365.464447,104.292686 365.400757,106.772446 365.043945,109.603233   C358.680298,108.876251 357.785889,115.795341 354.286652,119.618446   C353.751526,120.203117 354.320068,122.776230 355.169678,123.497910   C363.163086,130.287735 359.452423,138.852295 358.441010,146.697830   C357.977661,150.292023 358.070770,153.291626 360.395996,155.614746   C364.342072,159.557281 366.712982,163.216171 365.255432,169.474350   C363.787811,175.775864 364.317780,182.544724 363.994904,189.109909   C363.814545,192.777176 359.358795,199.321320 355.284088,200.603546   C356.533722,203.339111 357.725616,205.948318 359.153961,209.075089   C356.711609,211.364975 357.383026,219.042801 349.521088,215.586365   C348.597900,219.504410 346.243622,222.934128 349.674957,226.445801   C349.942688,226.719772 349.101593,227.871353 349.214600,228.541000   C349.552490,230.543076 347.001984,233.707397 351.384827,234.255829   C351.641998,234.288010 352.067017,235.781113 351.838959,236.372681   C351.101990,238.284134 350.096344,240.092010 349.639771,242.153290   C347.842621,243.334656 342.894104,242.987991 347.525482,247.302032   C347.902222,247.652939 348.131561,248.867172 347.908203,249.052673   C343.790802,252.472366 346.591400,255.215408 348.597504,258.175720   C350.112427,260.411194 348.513794,270.816101 347.012054,273.096283   C346.153534,274.399811 346.370483,276.382690 345.976929,278.029510   C345.573975,279.715576 345.016876,281.364838 344.731964,282.333984   C337.431061,281.179840 330.453125,280.244324 323.551056,278.915039   C320.097687,278.249939 320.084595,275.376953 320.124664,272.378326   C320.172424,268.801086 319.574829,265.214752 319.241089,261.633820   C319.211670,261.318420 319.084442,261.006805 318.971008,260.705353   C318.145538,258.511841 317.914276,255.121475 316.371918,254.347275   C311.021973,251.661850 304.777374,248.894958 299.104950,251.265213   C290.702545,254.776199 285.532867,250.962692 280.219452,245.743790   C278.826233,244.375351 276.960022,242.006821 275.733215,242.247696   C272.852539,242.813324 269.670349,244.107040 267.601379,246.123245   C261.106110,252.452896 254.928375,258.739044 245.680618,261.449707   C242.620377,262.346710 239.760162,266.430023 238.301514,269.718719   C235.926056,275.074402 235.021088,281.062805 233.006531,286.606476   C232.044250,289.254517 235.990372,291.539368 233.043793,294.013794   C232.537674,294.438812 232.399002,295.881866 232.094345,295.880676   C225.965698,295.856995 227.194077,300.300140 226.962326,303.988983   C226.789383,306.741882 226.968597,309.819366 225.787170,312.139252   C223.749802,316.139923 225.844223,317.351807 229.241943,318.518158   C227.421463,325.920471 222.888458,330.812653 216.330963,333.978271   C213.901443,335.151093 212.765472,340.961395 215.011703,343.388947   C219.141220,347.851837 220.615082,353.536957 220.145096,358.953461   C219.592133,365.325775 222.235580,370.793579 222.814941,376.690491   C223.436539,383.017120 225.296616,390.029938 219.338867,395.323364   C219.130005,395.508972 219.106689,395.917053 219.023758,396.228607   C217.986740,400.124756 223.709396,410.090759 227.874237,411.539185   C227.874237,414.150146 227.874237,416.788055 227.874237,419.222961   C223.841400,420.171509 219.953537,421.059174 216.082809,422.016144   C215.171005,422.241547 213.529205,422.774597 213.554245,423.041107   C213.941055,427.159760 214.098679,431.402130 215.345825,435.282684   C215.785461,436.650635 218.943069,437.546326 220.989731,437.895599   C223.580917,438.337738 226.304794,438.002502 228.971436,438.002319   C236.386429,438.001831 236.386429,438.001801 239.371429,431.166992   C249.687012,438.392731 261.310272,441.634277 274.151459,441.979492   C274.151459,445.542877 274.151459,448.627289 274.151459,452.094940   C263.750580,450.360107 255.875824,454.896637 248.304642,460.274506   C247.367172,460.940430 246.374847,461.747589 245.838791,462.725464   C241.600479,470.456818 233.714966,473.202789 226.590088,476.997772   C225.750595,477.444916 224.713654,477.729828 224.122833,478.401733   C220.128845,482.943665 216.011200,487.407501 212.423416,492.258881   C211.215866,493.891693 211.125061,496.568909 211.058090,498.784912   C210.872726,504.919342 212.038162,511.320465 210.636566,517.125244   C209.372284,522.361450 205.525101,527.012085 202.627838,531.806702   C198.614166,538.448792 194.652679,547.622925 199.234833,554.830688   C203.496399,561.534180 205.610580,562.358459 213.777435,561.182007   C226.578827,559.337830 239.395050,557.836426 252.479553,559.728394   C256.906281,560.368408 261.775574,557.865051 266.456116,556.861023   C269.611053,556.184265 272.796570,555.650513 275.953644,554.982971   C277.039185,554.753479 278.328278,554.597290 279.101166,553.922668   C284.230347,549.446045 289.134064,544.706848 294.330841,540.312988   C298.537781,536.756042 303.050812,533.560913 307.431274,530.209473   C309.295197,528.783447 311.104095,527.272461 313.058136,525.981995   C314.316254,525.151123 315.764160,524.178162 317.177124,524.092163   C321.304535,523.841003 325.457092,524.002869 329.238312,524.002869   C330.565521,540.770142 326.845032,555.820129 317.178284,569.439697   C309.316498,580.516296 310.687927,591.815369 319.881622,601.481934   C327.736450,609.740662 328.004028,618.395691 323.305054,629.068176   C321.394440,633.407654 318.222290,637.182495 316.192383,641.482544   C315.150024,643.690674 314.978882,646.505981 315.092834,649.016052   C315.245880,652.386902 316.188507,655.713623 316.551453,659.085205   C317.067139,663.876099 313.045105,665.888855 309.910645,666.757935   C303.112579,668.642822 300.714508,674.013794 299.248657,679.436279   C297.988647,684.097351 298.953888,689.337646 298.696625,694.309448   C298.640106,695.401489 297.816772,696.737366 296.935120,697.456604   C291.530121,701.865601 290.036682,707.509460 289.720825,714.350464   C289.511932,718.874023 287.009155,723.449707 284.911285,727.694580   C280.825653,735.961609 276.276520,743.998779 271.976624,752.161377   C270.560791,754.849182 268.821259,757.510071 268.128357,760.398804   C267.265747,763.994812 267.839783,767.947937 266.897064,771.509644   C264.782196,779.499756 263.308624,787.652893 259.239471,795.151306   C257.752197,797.892029 258.618896,802.374634 259.462067,805.804382   C260.664398,810.695190 263.142822,815.268616 264.402069,820.151367   C264.779846,821.616211 263.290497,824.032776 261.990570,825.362000   C259.292786,828.120239 258.843994,831.087830 259.104950,834.780273   C259.259338,836.965332 257.685638,839.244995 257.019958,841.520447   C254.774902,849.194702 256.490723,856.582520 258.452850,864.041443   C260.110016,870.341125 263.148071,876.773621 259.185425,883.276794   C255.768646,888.884155 252.140228,894.362793 248.584549,899.884888   C248.148453,900.562317 247.200043,901.121155 247.137268,901.795349   C246.394165,909.773743 242.195251,916.455627 239.541641,923.712097   C237.441879,929.454102 239.118820,936.554138 238.985870,943.048462   C238.922882,946.125732 238.960327,949.300049 238.218506,952.245605   C237.166245,956.424072 235.582138,960.490845 233.958923,964.497559   C231.998856,969.335754 229.581802,973.992615 227.715546,978.863342   C226.749832,981.383850 226.469803,984.183472 226.013809,986.879700   C224.639053,995.007996 223.551819,1003.192261 221.918060,1011.266785   C220.808517,1016.750610 218.968323,1022.086548 217.401825,1027.677979   C208.796555,1027.372192 208.238876,1035.689819 204.402527,1040.456421   C204.008621,1039.309570 203.958282,1037.432983 203.019989,1036.712036   C196.973099,1032.065918 197.563553,1024.929565 195.922333,1018.644348   C195.733841,1017.922424 195.977463,1017.016113 196.225464,1016.262634   C198.902847,1008.129028 199.299591,1000.313965 193.935577,992.882629   C192.734879,991.219299 191.982620,988.718506 192.128830,986.682678   C192.894516,976.020508 187.228867,967.055786 184.549469,957.347839   C180.803177,943.774353 175.951035,930.506470 171.595200,917.100281   C171.298569,916.187317 170.934265,915.179993 171.043762,914.269775   C171.917908,907.003479 168.739517,900.672974 166.583221,894.089172   C164.303741,887.129211 162.398087,880.039551 159.919144,873.154236   C157.545471,866.561340 154.314392,860.271179 152.048248,853.646790   C147.803391,841.238159 144.302094,828.566345 139.756409,816.275879   C138.658447,813.307251 134.748688,811.331909 132.021667,809.030457   C130.421234,807.679810 128.563522,806.639160 126.891853,805.366699   C123.932976,803.114441 122.975487,800.102173 124.019630,796.573608   C125.061104,793.053894 126.607399,789.651245 127.300209,786.074890   C127.629333,784.375854 127.011536,781.976257 125.924171,780.608337   C120.914734,774.306519 116.565605,767.993286 119.896172,759.352844   C120.143700,758.710571 119.720932,757.770081 119.507690,756.996338   C117.678101,750.358643 116.054573,743.652222 113.912270,737.116150   C111.894707,730.960876 109.716179,724.798706 106.922836,718.968079   C97.759377,699.840881 90.483978,680.033447 84.255722,659.781799   C81.251160,650.012268 77.106407,640.593201 74.109200,630.821777   C70.396156,618.716736 67.155846,606.454285 64.214447,594.139587   C63.822247,592.497620 65.919067,589.096191 67.659637,588.338196   C72.063225,586.420410 76.108879,584.876099 77.415855,579.456299   C77.728859,578.158447 80.418785,577.369568 82.084122,576.474182   C86.651062,574.018738 87.595123,570.462891 86.324379,565.529419   C84.362694,557.913574 85.718010,551.166443 91.913971,545.447327   C99.665710,538.292053 106.761642,530.428345 114.473129,523.226440   C116.942039,520.920654 120.559479,519.888733 123.477859,518.005005   C125.513474,516.691101 127.580345,515.173706 129.046310,513.290344   C131.066833,510.694519 132.822601,508.203156 128.216888,505.455200   C123.499092,502.640320 119.565994,498.487671 115.370468,494.827637   C112.350983,492.193634 114.738258,489.994659 116.405899,488.214203   C125.814514,478.169281 132.185257,466.258636 138.060760,453.981934   C142.416702,444.880280 147.160782,435.964996 151.581741,426.893463   C152.755478,424.485107 153.167191,421.711060 154.289597,419.270874   C157.286423,412.755524 160.769943,406.450073 163.497437,399.829437   C165.488815,394.995636 166.426437,389.738647 168.133545,384.773376   C169.538086,380.688171 171.627472,376.835327 172.984268,372.737427   C176.201385,363.020905 179.225067,353.238770 182.212280,343.448151   C185.420273,332.933960 188.657288,322.424133 191.588669,311.831299   C194.840378,300.080933 198.279648,288.343994 200.698151,276.410919   C203.938675,260.422028 206.323898,244.258072 208.981491,228.153625   C210.115219,221.283432 209.367981,213.527084 212.386673,207.675156   C217.231094,198.283920 214.726166,188.119080 217.897781,178.786713   C218.476028,177.085251 217.980209,175.018768 217.980209,171.936325   C219.576965,172.431610 221.678085,172.510422 222.954849,173.576508   C229.162308,178.759735 236.605270,177.672455 239.785202,170.312210   C242.362778,164.346115 244.200867,158.019089 245.845413,151.716095   C246.351089,149.777985 244.950394,147.407761 244.756470,145.205994   C244.488037,142.158646 243.934448,138.955566 244.554581,136.043076   C246.864548,125.194000 249.604294,114.436440 252.428848,102.614555   C254.239502,103.187859 257.441406,105.398003 259.379822,104.587265   C264.822845,102.310715 269.990143,106.722511 275.870819,103.550392   C281.154541,100.700256 288.295258,101.292717 294.712250,100.352623   C295.201050,108.595390 302.902252,114.026077 311.449921,111.840065   C314.413910,111.082039 317.517792,110.821533 320.423706,109.907516   C321.786957,109.478714 323.528717,108.247383 323.895752,107.019974   C325.176880,102.735779 328.074432,102.418953 331.585846,103.262352   C338.322235,104.880348 338.856812,104.518028 339.158722,97.281349   C340.531311,97.141090 341.953430,96.995773 343.707184,96.816559   C344.114929,94.592445 344.616669,92.271645 344.940491,89.926285   C345.121887,88.612488 344.455811,86.808197 345.117706,85.994720   C349.482056,80.630875 347.617035,74.415726 348.189484,68.460052   C348.660217,63.562870 350.757690,58.822060 352.706360,54.185432   C354.975525,60.849838 360.301270,64.312279 368.266052,63.711742   C368.844208,63.790806 368.957275,63.925999 369.070312,64.061195  z"/>
<path fill="#ffffff" opacity="1.000000" stroke="none" d=" M315.972168,501.697113   C314.639465,507.359680 313.394867,512.627930 311.973816,517.848083   C311.529358,519.480652 311.023315,521.476318 309.842255,522.469421   C298.948364,531.629211 288.150726,540.942322 276.742920,549.428223   C273.354736,551.948608 268.187714,552.416870 263.725067,553.076416   C256.519623,554.141235 249.225601,554.620056 241.963226,555.283264   C232.222031,556.172791 222.352921,556.332214 212.772141,558.082703   C205.877838,559.342407 198.406708,548.585571 201.626068,542.864563   C202.670731,541.007996 203.100021,538.699585 204.436279,537.130432   C211.322189,529.044495 213.486588,519.293396 213.624252,509.223541   C213.782791,497.628571 219.672821,489.202271 227.239487,481.637756   C229.943008,478.934998 234.096939,477.749207 237.309387,475.476074   C244.806091,470.171356 251.859482,464.180603 259.661591,459.395752   C262.859772,457.434418 267.714813,456.828308 271.471100,457.509247   C275.091064,458.165466 278.161530,458.068848 279.773010,455.317230   C280.654236,453.812469 278.973541,450.810760 278.459717,448.481567   C278.389740,448.164459 278.386932,447.832520 278.382568,447.790680   C280.067566,446.701935 282.536407,445.999542 283.019592,444.607788   C284.011261,441.751038 282.742126,439.614349 279.203125,439.134033   C272.992157,438.291107 266.780121,437.335754 260.652924,436.031158   C255.178558,434.865631 250.205078,432.657471 246.486542,428.023773   C245.283218,426.524323 242.982880,425.328888 241.056656,425.107971   C237.244614,424.670807 235.360687,423.361969 235.956543,419.243011   C236.263275,417.122559 236.345932,414.844574 235.895874,412.775696   C235.466339,410.801147 234.681610,407.940308 233.244919,407.309479   C225.601517,403.953400 226.128036,398.224426 226.562561,391.251373   C227.083206,382.896515 225.598373,374.414215 224.945633,365.989929   C224.690247,362.694031 223.838226,359.359650 224.138138,356.124359   C224.644730,350.659271 221.912872,346.619110 219.229782,342.473206   C217.535156,339.854645 218.056412,338.501617 220.807175,336.772888   C226.466217,333.216492 231.077377,328.478394 232.605835,321.631653   C232.975372,319.976257 233.133041,317.508240 232.205704,316.463623   C228.557495,312.354095 230.436859,307.602417 230.075562,303.139191   C230.021286,302.468781 230.745529,301.434265 231.394073,301.056396   C235.958069,298.397125 237.033768,294.007141 238.118729,289.256622   C239.668335,282.471741 241.640549,275.734802 244.123352,269.241669   C244.854630,267.329163 247.886200,266.255554 249.927444,264.893188   C254.053314,262.139557 258.260315,259.506134 262.353333,256.705475   C263.713348,255.774887 264.766602,254.408310 266.066254,253.374512   C268.520569,251.422165 270.893524,248.413879 273.602051,248.041962   C275.700500,247.753815 278.218323,250.876999 280.620087,252.370621   C286.785736,256.204956 293.608917,257.045319 300.219666,254.624985   C307.669067,251.897614 317.797363,261.779541 316.235870,269.696747   C314.519104,278.401062 317.651459,281.539642 326.337891,282.863892   C333.721497,283.989502 340.876709,286.613403 348.056427,288.553711   C348.056427,296.795166 347.382629,304.082367 348.201447,311.197815   C349.745605,324.617035 349.595093,337.723450 345.731140,350.803558   C344.370880,355.408234 344.517792,360.453186 343.908875,365.288574   C343.768829,366.400513 343.506470,367.550629 343.034210,368.558441   C340.127380,374.761902 340.336517,381.130035 342.214752,387.471100   C344.332123,394.619476 344.892700,401.512421 342.343475,408.835052   C341.246429,411.986328 342.312195,415.995667 342.777893,419.565308   C343.984467,428.813660 345.403442,438.034332 346.656250,446.702911   C345.525452,447.602448 345.230011,448.015228 345.025543,447.974274   C339.037659,446.774200 335.888580,449.483337 333.772308,454.999084   C332.573059,458.124817 329.581879,460.519836 327.715332,463.446472   C326.230530,465.774445 324.989746,468.324921 324.062775,470.927002   C322.418335,475.543274 321.892273,480.753448 319.437347,484.836823   C316.245789,490.145477 315.016907,495.352875 315.972168,501.697113  z"/>
<path fill="#D60837" opacity="1.000000" stroke="none" d=" M115.169479,518.082581   C106.406837,526.237915 98.088699,534.369202 89.501694,542.205811   C82.223183,548.848389 79.859009,556.587036 82.345909,566.158508   C82.858887,568.132874 82.143974,571.402588 80.731079,572.731262   C74.747696,578.357971 68.287514,583.477783 61.369366,589.316406   C60.242294,586.686707 59.441269,584.942688 58.741100,583.159058   C57.102901,578.985779 56.200336,574.320190 53.727852,570.729980   C50.710796,566.348999 52.132023,563.975952 55.195030,560.667725   C70.884995,543.721802 86.442459,526.649963 101.819214,509.419556   C105.418884,505.385895 108.137238,500.565765 111.548004,495.698029   C116.567268,499.919922 121.441345,504.019684 126.184402,508.009277   C124.896774,514.269470 119.779083,515.635193 115.169479,518.082581  z"/>
<path fill="#ffffff" opacity="1.000000" stroke="none" d=" M322.711121,487.305969   C324.347961,481.025787 325.709045,475.061584 327.253967,469.145386   C327.573486,467.921814 328.494446,466.815582 329.279419,465.760284   C332.235260,461.786560 335.102966,457.730896 338.317932,453.974854   C339.507263,452.585449 341.564392,451.938751 343.225708,450.953247   C343.504120,452.655579 344.424072,454.563019 343.956024,456.026642   C341.091431,464.984222 337.007294,473.650177 335.079468,482.782715   C332.934387,492.944305 332.615662,503.496216 331.600067,513.887756   C331.376862,516.171692 331.567352,518.495972 331.567352,521.599976   C325.954041,521.265808 320.805878,520.959351 313.902985,520.548401   C316.051392,514.126038 317.886566,508.832855 319.559143,503.488770   C319.924042,502.322937 320.227478,500.650513 319.673798,499.764984   C316.480988,494.658630 318.664948,490.999664 322.711121,487.305969  z"/>
<path fill="transparent" opacity="1.000000" stroke="none" d=" M368.997559,196.014435   C368.208740,199.555679 367.420013,202.669235 366.562561,206.054001   C363.997894,205.329239 360.909821,205.613434 363.865051,201.226456   C368.447449,194.423996 369.589813,186.574844 368.897308,177.994339   C372.919159,184.234024 370.538757,189.904861 368.997559,196.014435  z"/>
<path fill="transparent" opacity="1.000000" stroke="none" d=" M361.830383,118.669235   C362.509705,117.753647 362.937256,117.120514 363.409119,116.421722   C363.409119,119.858391 363.409119,123.214180 363.409119,127.400284   C361.526672,125.235184 360.299927,123.824234 358.784332,122.081062   C359.687256,121.069862 360.632935,120.010780 361.830383,118.669235  z"/>
<path fill="transparent" opacity="1.000000" stroke="none" d=" M373.445068,201.530701   C373.306824,203.273346 373.001587,204.808212 372.696350,206.343079   C372.533661,206.357315 372.371002,206.371567 372.208313,206.385803   C372.208313,204.688339 372.208313,202.990875 372.563538,201.111191   C373.038574,201.060287 373.158356,201.191605 373.445068,201.530701  z"/>
<path fill="transparent" opacity="1.000000" stroke="none" d=" M368.579224,63.439224   C368.868134,62.900566 369.308929,62.578289 369.749695,62.256012   C369.710419,62.793583 369.671143,63.331154 369.351074,63.964958   C368.957275,63.925999 368.844208,63.790806 368.579224,63.439224  z"/>
</svg>