<?xml version="1.0" encoding="utf-8"?>
<!-- Generator: Adobe Illustrator 24.0.1, SVG Export Plug-In . SVG Version: 6.00 Build 0)  -->
<svg version="1.1" id="Layer_1" xmlns="http://www.w3.org/2000/svg" xmlns:xlink="http://www.w3.org/1999/xlink" x="0px" y="0px"
	 viewBox="0 0 47 35.4" style="enable-background:new 0 0 47 35.4;" xml:space="preserve">
<style type="text/css">
	.st0{clip-path:url(#SVGID_7_);}
	.st1{clip-path:url(#SVGID_13_);}
	.st2{clip-path:url(#SVGID_18_);}
	.st3{clip-path:url(#SVGID_19_);}
	.st4{clip-path:url(#SVGID_25_);}
	.st5{clip-path:url(#SVGID_30_);}
	.st6{clip-path:url(#SVGID_31_);}
	.st7{clip-path:url(#SVGID_37_);}
	.st8{clip-path:url(#SVGID_38_);}
	.st9{clip-path:url(#SVGID_39_);}
	.st10{clip-path:url(#SVGID_46_);}
	.st11{clip-path:url(#SVGID_47_);}
	.st12{clip-path:url(#SVGID_48_);}
	.st13{clip-path:url(#SVGID_49_);}
	.st14{clip-path:url(#SVGID_50_);fill:#022A4100;}
	.st15{clip-path:url(#SVGID_55_);}
	.st16{clip-path:url(#SVGID_60_);}
	.st17{clip-path:url(#SVGID_61_);}
	.st18{clip-path:url(#SVGID_67_);}
	.st19{clip-path:url(#SVGID_68_);}
	.st20{clip-path:url(#SVGID_69_);}
	.st21{clip-path:url(#SVGID_76_);}
	.st22{clip-path:url(#SVGID_77_);}
	.st23{clip-path:url(#SVGID_78_);}
	.st24{clip-path:url(#SVGID_79_);}
	.st25{clip-path:url(#SVGID_80_);fill:#022A4100;}
	.st26{fill:#FFFFFF;}
</style>
<g>
	<g>
		<g>
			<g>
				<defs>
					<path id="SVGID_1_" d="M7.1,2.5c-2.6,0-4.7,2.1-4.7,4.7v19.9c0,2.6,2.1,4.7,4.7,4.7h32.2c2.6,0,4.7-2.1,4.7-4.7V7.2
						c0-2.6-2.1-4.7-4.7-4.7H7.1z"/>
				</defs>
				<clipPath id="SVGID_2_">
					<use xlink:href="#SVGID_1_"  style="overflow:visible;"/>
				</clipPath>
			</g>
		</g>
		<g>
			<g>
				<defs>
					<path id="SVGID_3_" d="M7.1,2.5c-2.6,0-4.7,2.1-4.7,4.7v19.9c0,2.6,2.1,4.7,4.7,4.7h32.2c2.6,0,4.7-2.1,4.7-4.7V7.2
						c0-2.6-2.1-4.7-4.7-4.7H7.1z"/>
				</defs>
				<clipPath id="SVGID_4_">
					<use xlink:href="#SVGID_3_"  style="overflow:visible;"/>
				</clipPath>
			</g>
			<g>
				<defs>
					<path id="SVGID_5_" d="M7.1,2.5c-2.6,0-4.7,2.1-4.7,4.7v19.9c0,2.6,2.1,4.7,4.7,4.7h32.2c2.6,0,4.7-2.1,4.7-4.7V7.2
						c0-2.6-2.1-4.7-4.7-4.7H7.1z"/>
				</defs>
				<defs>
					<path id="SVGID_6_" d="M7.1,2.5c-2.6,0-4.7,2.1-4.7,4.7v19.9c0,2.6,2.1,4.7,4.7,4.7h32.2c2.6,0,4.7-2.1,4.7-4.7V7.2
						c0-2.6-2.1-4.7-4.7-4.7H7.1z"/>
				</defs>
				<clipPath id="SVGID_7_">
					<use xlink:href="#SVGID_5_"  style="overflow:visible;"/>
				</clipPath>
				<clipPath id="SVGID_8_" class="st0">
					<use xlink:href="#SVGID_6_"  style="overflow:visible;"/>
				</clipPath>
			</g>
		</g>
		<g>
			<g>
				<defs>
					<path id="SVGID_9_" d="M7.1,2.5c-2.6,0-4.7,2.1-4.7,4.7v19.9c0,2.6,2.1,4.7,4.7,4.7h32.2c2.6,0,4.7-2.1,4.7-4.7V7.2
						c0-2.6-2.1-4.7-4.7-4.7H7.1z"/>
				</defs>
				<clipPath id="SVGID_10_">
					<use xlink:href="#SVGID_9_"  style="overflow:visible;"/>
				</clipPath>
			</g>
			<g>
				<defs>
					<path id="SVGID_11_" d="M7.1,2.5c-2.6,0-4.7,2.1-4.7,4.7v19.9c0,2.6,2.1,4.7,4.7,4.7h32.2c2.6,0,4.7-2.1,4.7-4.7V7.2
						c0-2.6-2.1-4.7-4.7-4.7H7.1z"/>
				</defs>
				<defs>
					<path id="SVGID_12_" d="M7.1,2.5c-2.6,0-4.7,2.1-4.7,4.7v19.9c0,2.6,2.1,4.7,4.7,4.7h32.2c2.6,0,4.7-2.1,4.7-4.7V7.2
						c0-2.6-2.1-4.7-4.7-4.7H7.1z"/>
				</defs>
				<clipPath id="SVGID_13_">
					<use xlink:href="#SVGID_11_"  style="overflow:visible;"/>
				</clipPath>
				<clipPath id="SVGID_14_" class="st1">
					<use xlink:href="#SVGID_12_"  style="overflow:visible;"/>
				</clipPath>
			</g>
			<g>
				<defs>
					<path id="SVGID_15_" d="M7.1,2.5c-2.6,0-4.7,2.1-4.7,4.7v19.9c0,2.6,2.1,4.7,4.7,4.7h32.2c2.6,0,4.7-2.1,4.7-4.7V7.2
						c0-2.6-2.1-4.7-4.7-4.7H7.1z"/>
				</defs>
				<defs>
					<path id="SVGID_16_" d="M7.1,2.5c-2.6,0-4.7,2.1-4.7,4.7v19.9c0,2.6,2.1,4.7,4.7,4.7h32.2c2.6,0,4.7-2.1,4.7-4.7V7.2
						c0-2.6-2.1-4.7-4.7-4.7H7.1z"/>
				</defs>
				<defs>
					<path id="SVGID_17_" d="M7.1,2.5c-2.6,0-4.7,2.1-4.7,4.7v19.9c0,2.6,2.1,4.7,4.7,4.7h32.2c2.6,0,4.7-2.1,4.7-4.7V7.2
						c0-2.6-2.1-4.7-4.7-4.7H7.1z"/>
				</defs>
				<clipPath id="SVGID_18_">
					<use xlink:href="#SVGID_15_"  style="overflow:visible;"/>
				</clipPath>
				<clipPath id="SVGID_19_" class="st2">
					<use xlink:href="#SVGID_16_"  style="overflow:visible;"/>
				</clipPath>
				<clipPath id="SVGID_20_" class="st3">
					<use xlink:href="#SVGID_17_"  style="overflow:visible;"/>
				</clipPath>
			</g>
		</g>
		<g>
			<g>
				<defs>
					<path id="SVGID_21_" d="M7.1,2.5c-2.6,0-4.7,2.1-4.7,4.7v19.9c0,2.6,2.1,4.7,4.7,4.7h32.2c2.6,0,4.7-2.1,4.7-4.7V7.2
						c0-2.6-2.1-4.7-4.7-4.7H7.1z"/>
				</defs>
				<clipPath id="SVGID_22_">
					<use xlink:href="#SVGID_21_"  style="overflow:visible;"/>
				</clipPath>
			</g>
			<g>
				<defs>
					<path id="SVGID_23_" d="M7.1,2.5c-2.6,0-4.7,2.1-4.7,4.7v19.9c0,2.6,2.1,4.7,4.7,4.7h32.2c2.6,0,4.7-2.1,4.7-4.7V7.2
						c0-2.6-2.1-4.7-4.7-4.7H7.1z"/>
				</defs>
				<defs>
					<path id="SVGID_24_" d="M7.1,2.5c-2.6,0-4.7,2.1-4.7,4.7v19.9c0,2.6,2.1,4.7,4.7,4.7h32.2c2.6,0,4.7-2.1,4.7-4.7V7.2
						c0-2.6-2.1-4.7-4.7-4.7H7.1z"/>
				</defs>
				<clipPath id="SVGID_25_">
					<use xlink:href="#SVGID_23_"  style="overflow:visible;"/>
				</clipPath>
				<clipPath id="SVGID_26_" class="st4">
					<use xlink:href="#SVGID_24_"  style="overflow:visible;"/>
				</clipPath>
			</g>
			<g>
				<defs>
					<path id="SVGID_27_" d="M7.1,2.5c-2.6,0-4.7,2.1-4.7,4.7v19.9c0,2.6,2.1,4.7,4.7,4.7h32.2c2.6,0,4.7-2.1,4.7-4.7V7.2
						c0-2.6-2.1-4.7-4.7-4.7H7.1z"/>
				</defs>
				<defs>
					<path id="SVGID_28_" d="M7.1,2.5c-2.6,0-4.7,2.1-4.7,4.7v19.9c0,2.6,2.1,4.7,4.7,4.7h32.2c2.6,0,4.7-2.1,4.7-4.7V7.2
						c0-2.6-2.1-4.7-4.7-4.7H7.1z"/>
				</defs>
				<defs>
					<path id="SVGID_29_" d="M7.1,2.5c-2.6,0-4.7,2.1-4.7,4.7v19.9c0,2.6,2.1,4.7,4.7,4.7h32.2c2.6,0,4.7-2.1,4.7-4.7V7.2
						c0-2.6-2.1-4.7-4.7-4.7H7.1z"/>
				</defs>
				<clipPath id="SVGID_30_">
					<use xlink:href="#SVGID_27_"  style="overflow:visible;"/>
				</clipPath>
				<clipPath id="SVGID_31_" class="st5">
					<use xlink:href="#SVGID_28_"  style="overflow:visible;"/>
				</clipPath>
				<clipPath id="SVGID_32_" class="st6">
					<use xlink:href="#SVGID_29_"  style="overflow:visible;"/>
				</clipPath>
			</g>
			<g>
				<defs>
					<path id="SVGID_33_" d="M7.1,2.5c-2.6,0-4.7,2.1-4.7,4.7v19.9c0,2.6,2.1,4.7,4.7,4.7h32.2c2.6,0,4.7-2.1,4.7-4.7V7.2
						c0-2.6-2.1-4.7-4.7-4.7H7.1z"/>
				</defs>
				<defs>
					<path id="SVGID_34_" d="M7.1,2.5c-2.6,0-4.7,2.1-4.7,4.7v19.9c0,2.6,2.1,4.7,4.7,4.7h32.2c2.6,0,4.7-2.1,4.7-4.7V7.2
						c0-2.6-2.1-4.7-4.7-4.7H7.1z"/>
				</defs>
				<defs>
					<path id="SVGID_35_" d="M7.1,2.5c-2.6,0-4.7,2.1-4.7,4.7v19.9c0,2.6,2.1,4.7,4.7,4.7h32.2c2.6,0,4.7-2.1,4.7-4.7V7.2
						c0-2.6-2.1-4.7-4.7-4.7H7.1z"/>
				</defs>
				<defs>
					<path id="SVGID_36_" d="M7.1,2.5c-2.6,0-4.7,2.1-4.7,4.7v19.9c0,2.6,2.1,4.7,4.7,4.7h32.2c2.6,0,4.7-2.1,4.7-4.7V7.2
						c0-2.6-2.1-4.7-4.7-4.7H7.1z"/>
				</defs>
				<clipPath id="SVGID_37_">
					<use xlink:href="#SVGID_33_"  style="overflow:visible;"/>
				</clipPath>
				<clipPath id="SVGID_38_" class="st7">
					<use xlink:href="#SVGID_34_"  style="overflow:visible;"/>
				</clipPath>
				<clipPath id="SVGID_39_" class="st8">
					<use xlink:href="#SVGID_35_"  style="overflow:visible;"/>
				</clipPath>
				<clipPath id="SVGID_40_" class="st9">
					<use xlink:href="#SVGID_36_"  style="overflow:visible;"/>
				</clipPath>
			</g>
			<g>
				<defs>
					<path id="SVGID_41_" d="M7.1,2.5c-2.6,0-4.7,2.1-4.7,4.7v19.9c0,2.6,2.1,4.7,4.7,4.7h32.2c2.6,0,4.7-2.1,4.7-4.7V7.2
						c0-2.6-2.1-4.7-4.7-4.7H7.1z"/>
				</defs>
				<defs>
					<path id="SVGID_42_" d="M7.1,2.5c-2.6,0-4.7,2.1-4.7,4.7v19.9c0,2.6,2.1,4.7,4.7,4.7h32.2c2.6,0,4.7-2.1,4.7-4.7V7.2
						c0-2.6-2.1-4.7-4.7-4.7H7.1z"/>
				</defs>
				<defs>
					<path id="SVGID_43_" d="M7.1,2.5c-2.6,0-4.7,2.1-4.7,4.7v19.9c0,2.6,2.1,4.7,4.7,4.7h32.2c2.6,0,4.7-2.1,4.7-4.7V7.2
						c0-2.6-2.1-4.7-4.7-4.7H7.1z"/>
				</defs>
				<defs>
					<path id="SVGID_44_" d="M7.1,2.5c-2.6,0-4.7,2.1-4.7,4.7v19.9c0,2.6,2.1,4.7,4.7,4.7h32.2c2.6,0,4.7-2.1,4.7-4.7V7.2
						c0-2.6-2.1-4.7-4.7-4.7H7.1z"/>
				</defs>
				<defs>
					<path id="SVGID_45_" d="M7.1,2.5c-2.6,0-4.7,2.1-4.7,4.7v19.9c0,2.6,2.1,4.7,4.7,4.7h32.2c2.6,0,4.7-2.1,4.7-4.7V7.2
						c0-2.6-2.1-4.7-4.7-4.7H7.1z"/>
				</defs>
				<clipPath id="SVGID_46_">
					<use xlink:href="#SVGID_41_"  style="overflow:visible;"/>
				</clipPath>
				<clipPath id="SVGID_47_" class="st10">
					<use xlink:href="#SVGID_42_"  style="overflow:visible;"/>
				</clipPath>
				<clipPath id="SVGID_48_" class="st11">
					<use xlink:href="#SVGID_43_"  style="overflow:visible;"/>
				</clipPath>
				<clipPath id="SVGID_49_" class="st12">
					<use xlink:href="#SVGID_44_"  style="overflow:visible;"/>
				</clipPath>
				<clipPath id="SVGID_50_" class="st13">
					<use xlink:href="#SVGID_45_"  style="overflow:visible;"/>
				</clipPath>
				<path class="st14" d="M39.3,31.8H7.1c-2.6,0-4.7-2.1-4.7-4.7V7.2c0-2.6,2.1-4.7,4.7-4.7h32.2c2.6,0,4.7,2.1,4.7,4.7v19.9
					C44,29.7,41.9,31.8,39.3,31.8"/>
			</g>
		</g>
		<g>
			<g>
				<defs>
					<path id="SVGID_51_" d="M7.1,2.5c-2.6,0-4.7,2.1-4.7,4.7v19.9c0,2.6,2.1,4.7,4.7,4.7h32.2c2.6,0,4.7-2.1,4.7-4.7V7.2
						c0-2.6-2.1-4.7-4.7-4.7H7.1z"/>
				</defs>
				<clipPath id="SVGID_52_">
					<use xlink:href="#SVGID_51_"  style="overflow:visible;"/>
				</clipPath>
			</g>
			<g>
				<defs>
					<path id="SVGID_53_" d="M7.1,2.5c-2.6,0-4.7,2.1-4.7,4.7v19.9c0,2.6,2.1,4.7,4.7,4.7h32.2c2.6,0,4.7-2.1,4.7-4.7V7.2
						c0-2.6-2.1-4.7-4.7-4.7H7.1z"/>
				</defs>
				<defs>
					<path id="SVGID_54_" d="M7.1,2.5c-2.6,0-4.7,2.1-4.7,4.7v19.9c0,2.6,2.1,4.7,4.7,4.7h32.2c2.6,0,4.7-2.1,4.7-4.7V7.2
						c0-2.6-2.1-4.7-4.7-4.7H7.1z"/>
				</defs>
				<clipPath id="SVGID_55_">
					<use xlink:href="#SVGID_53_"  style="overflow:visible;"/>
				</clipPath>
				<clipPath id="SVGID_56_" class="st15">
					<use xlink:href="#SVGID_54_"  style="overflow:visible;"/>
				</clipPath>
			</g>
			<g>
				<defs>
					<path id="SVGID_57_" d="M7.1,2.5c-2.6,0-4.7,2.1-4.7,4.7v19.9c0,2.6,2.1,4.7,4.7,4.7h32.2c2.6,0,4.7-2.1,4.7-4.7V7.2
						c0-2.6-2.1-4.7-4.7-4.7H7.1z"/>
				</defs>
				<defs>
					<path id="SVGID_58_" d="M7.1,2.5c-2.6,0-4.7,2.1-4.7,4.7v19.9c0,2.6,2.1,4.7,4.7,4.7h32.2c2.6,0,4.7-2.1,4.7-4.7V7.2
						c0-2.6-2.1-4.7-4.7-4.7H7.1z"/>
				</defs>
				<defs>
					<path id="SVGID_59_" d="M7.1,2.5c-2.6,0-4.7,2.1-4.7,4.7v19.9c0,2.6,2.1,4.7,4.7,4.7h32.2c2.6,0,4.7-2.1,4.7-4.7V7.2
						c0-2.6-2.1-4.7-4.7-4.7H7.1z"/>
				</defs>
				<clipPath id="SVGID_60_">
					<use xlink:href="#SVGID_57_"  style="overflow:visible;"/>
				</clipPath>
				<clipPath id="SVGID_61_" class="st16">
					<use xlink:href="#SVGID_58_"  style="overflow:visible;"/>
				</clipPath>
				<clipPath id="SVGID_62_" class="st17">
					<use xlink:href="#SVGID_59_"  style="overflow:visible;"/>
				</clipPath>
			</g>
			<g>
				<defs>
					<path id="SVGID_63_" d="M7.1,2.5c-2.6,0-4.7,2.1-4.7,4.7v19.9c0,2.6,2.1,4.7,4.7,4.7h32.2c2.6,0,4.7-2.1,4.7-4.7V7.2
						c0-2.6-2.1-4.7-4.7-4.7H7.1z"/>
				</defs>
				<defs>
					<path id="SVGID_64_" d="M7.1,2.5c-2.6,0-4.7,2.1-4.7,4.7v19.9c0,2.6,2.1,4.7,4.7,4.7h32.2c2.6,0,4.7-2.1,4.7-4.7V7.2
						c0-2.6-2.1-4.7-4.7-4.7H7.1z"/>
				</defs>
				<defs>
					<path id="SVGID_65_" d="M7.1,2.5c-2.6,0-4.7,2.1-4.7,4.7v19.9c0,2.6,2.1,4.7,4.7,4.7h32.2c2.6,0,4.7-2.1,4.7-4.7V7.2
						c0-2.6-2.1-4.7-4.7-4.7H7.1z"/>
				</defs>
				<defs>
					<path id="SVGID_66_" d="M7.1,2.5c-2.6,0-4.7,2.1-4.7,4.7v19.9c0,2.6,2.1,4.7,4.7,4.7h32.2c2.6,0,4.7-2.1,4.7-4.7V7.2
						c0-2.6-2.1-4.7-4.7-4.7H7.1z"/>
				</defs>
				<clipPath id="SVGID_67_">
					<use xlink:href="#SVGID_63_"  style="overflow:visible;"/>
				</clipPath>
				<clipPath id="SVGID_68_" class="st18">
					<use xlink:href="#SVGID_64_"  style="overflow:visible;"/>
				</clipPath>
				<clipPath id="SVGID_69_" class="st19">
					<use xlink:href="#SVGID_65_"  style="overflow:visible;"/>
				</clipPath>
				<clipPath id="SVGID_70_" class="st20">
					<use xlink:href="#SVGID_66_"  style="overflow:visible;"/>
				</clipPath>
			</g>
			<g>
				<defs>
					<path id="SVGID_71_" d="M7.1,2.5c-2.6,0-4.7,2.1-4.7,4.7v19.9c0,2.6,2.1,4.7,4.7,4.7h32.2c2.6,0,4.7-2.1,4.7-4.7V7.2
						c0-2.6-2.1-4.7-4.7-4.7H7.1z"/>
				</defs>
				<defs>
					<path id="SVGID_72_" d="M7.1,2.5c-2.6,0-4.7,2.1-4.7,4.7v19.9c0,2.6,2.1,4.7,4.7,4.7h32.2c2.6,0,4.7-2.1,4.7-4.7V7.2
						c0-2.6-2.1-4.7-4.7-4.7H7.1z"/>
				</defs>
				<defs>
					<path id="SVGID_73_" d="M7.1,2.5c-2.6,0-4.7,2.1-4.7,4.7v19.9c0,2.6,2.1,4.7,4.7,4.7h32.2c2.6,0,4.7-2.1,4.7-4.7V7.2
						c0-2.6-2.1-4.7-4.7-4.7H7.1z"/>
				</defs>
				<defs>
					<path id="SVGID_74_" d="M7.1,2.5c-2.6,0-4.7,2.1-4.7,4.7v19.9c0,2.6,2.1,4.7,4.7,4.7h32.2c2.6,0,4.7-2.1,4.7-4.7V7.2
						c0-2.6-2.1-4.7-4.7-4.7H7.1z"/>
				</defs>
				<defs>
					<path id="SVGID_75_" d="M7.1,2.5c-2.6,0-4.7,2.1-4.7,4.7v19.9c0,2.6,2.1,4.7,4.7,4.7h32.2c2.6,0,4.7-2.1,4.7-4.7V7.2
						c0-2.6-2.1-4.7-4.7-4.7H7.1z"/>
				</defs>
				<clipPath id="SVGID_76_">
					<use xlink:href="#SVGID_71_"  style="overflow:visible;"/>
				</clipPath>
				<clipPath id="SVGID_77_" class="st21">
					<use xlink:href="#SVGID_72_"  style="overflow:visible;"/>
				</clipPath>
				<clipPath id="SVGID_78_" class="st22">
					<use xlink:href="#SVGID_73_"  style="overflow:visible;"/>
				</clipPath>
				<clipPath id="SVGID_79_" class="st23">
					<use xlink:href="#SVGID_74_"  style="overflow:visible;"/>
				</clipPath>
				<clipPath id="SVGID_80_" class="st24">
					<use xlink:href="#SVGID_75_"  style="overflow:visible;"/>
				</clipPath>
				<path class="st25" d="M39.3,31.8H7.1c-2.6,0-4.7-2.1-4.7-4.7V7.2c0-2.6,2.1-4.7,4.7-4.7h32.2c2.6,0,4.7,2.1,4.7,4.7v19.9
					C44,29.7,41.9,31.8,39.3,31.8"/>
			</g>
		</g>
	</g>
</g>
<g>
	<path class="st26" d="M10.1,7.9C9.7,7.9,9.4,7.8,9,7.9C8.5,7.9,8.1,8.3,7.8,8.7c-0.3,0.5-0.4,1-0.3,1.6l0,0
		c0.1,0.5,0.3,0.9,0.7,1.1c0.2,0.2,0.6,0.3,1.2,0.5c0.9,0.2,1.5,0.6,1.9,0.8c0.6,0.4,0.9,1,1,1.7l0.2,0.7L9,15.8l-0.1-0.6v-0.1l0,0
		c0-0.1-0.3-0.2-0.9-0.3c-1.1-0.3-1.9-0.7-2.4-1c-0.9-0.6-1.4-1.5-1.6-2.7l0,0c-0.2-1.3,0-2.5,0.7-3.6c0.8-1.2,2.1-2,3.7-2.3h0.1
		c1.1-0.2,2.2-0.1,3.1,0.2c0.8,0.3,1.6,0.9,2.3,1.8l-3,1.8C10.7,8.3,10.4,8.1,10.1,7.9z M12.5,16.9c0.5,0.3,0.8,0.8,1,1.4
		c0.1,0.6,0,1.2-0.3,1.7c-0.3,0.5-0.8,0.8-1.4,1c-0.6,0.1-1.2,0-1.7-0.3c-0.5-0.3-0.8-0.8-1-1.4c-0.1-0.6,0-1.2,0.3-1.7
		c0.3-0.5,0.8-0.8,1.4-1C11.3,16.4,11.9,16.5,12.5,16.9z"/>
</g>
<g>
	<path class="st26" d="M31.5,17.9c-0.2,0.2-0.3,0.3-0.4,0.5c-0.4,0.5-0.9,1.1-1.3,1.6c-0.4,0.5-0.9,0.6-1.4,0.4
		c-0.5-0.3-0.7-0.9-0.5-1.5c0.1-0.1,0.1-0.3,0.2-0.4c0.8-0.9,1.5-1.9,2.3-2.8c0.8-0.9,1.7-1.3,2.9-1.3c0.7,0,1.5,0,2.2,0
		c0.9,0.1,1.7,0.5,2.3,1.2c0.8,0.9,1.6,1.9,2.4,2.9c0.6,0.7,0.2,1.9-0.6,2c-0.4,0.1-0.7-0.1-1-0.4c-0.5-0.6-1.1-1.3-1.6-1.9
		c-0.1-0.1-0.1-0.1-0.2-0.2c-0.1,0.2,0,0.4,0.1,0.6c0.6,1,1.1,2.1,1.7,3.1c0.2,0.3,0.3,0.6,0.5,0.9c0.4,0.7-0.1,1.4-0.8,1.4
		c-0.3,0-0.7,0-1,0c-0.4,0-0.5,0.1-0.5,0.5c0,1.1,0,2.2,0,3.4c0,0.5-0.4,1-0.9,1.1c-0.5,0.1-1.1-0.1-1.3-0.6
		c-0.1-0.2-0.1-0.4-0.1-0.6c0-1.1,0-2.2,0-3.3c0-0.1,0-0.2,0-0.2c0-0.2-0.2-0.3-0.3-0.3c-0.2,0-0.3,0.1-0.3,0.3c0,0.2,0,0.3,0,0.5
		c0,1,0,2.1,0,3.1c0,0.5-0.3,1-0.8,1.1c-0.5,0.1-1-0.1-1.3-0.5c-0.1-0.2-0.2-0.4-0.2-0.7c0-1.1,0-2.2,0-3.3c0-0.4-0.1-0.6-0.6-0.6
		c-0.3,0-0.6,0-1,0c-0.8,0-1.2-0.7-0.8-1.4c0.7-1.3,1.5-2.6,2.2-4C31.5,18.4,31.6,18.2,31.5,17.9z"/>
	<path class="st26" d="M23.7,23.1c0,1.6,0,3.1,0,4.7c0,0.8-0.7,1.3-1.5,1.1c-0.5-0.1-0.8-0.6-0.8-1.2c0-1.1,0-2.2,0-3.3
		c0-0.6,0-1.1,0-1.7c0-0.1-0.1-0.3-0.1-0.3c-0.2-0.2-0.4,0-0.5,0.2c0,0.1,0,0.2,0,0.2c0,1.7,0,3.4,0,5c0,0.5-0.2,0.8-0.7,1
		c-0.4,0.2-0.8,0.1-1.2-0.2c-0.3-0.3-0.4-0.6-0.4-1c0-1.3,0-2.7,0-4c0-1.7,0-3.5,0-5.2c0-0.1,0-0.1,0-0.2c0-0.1-0.1-0.2-0.1-0.2
		c-0.1,0-0.2,0-0.2,0.1c-0.3,0.3-0.6,0.7-0.9,1c-0.2,0.2-0.4,0.5-0.6,0.7c-0.4,0.5-1.1,0.5-1.6,0.1c-0.5-0.4-0.6-1.1-0.1-1.6
		c0.8-1,1.7-2,2.5-3c0.7-0.8,1.7-1.2,2.7-1.2c0.6,0,1.2,0,1.8,0c1.1,0,2.1,0.4,2.8,1.3c0.8,1,1.6,1.9,2.5,2.9
		c0.6,0.7,0.2,1.7-0.7,1.9c-0.4,0.1-0.8-0.1-1-0.4c-0.5-0.6-0.9-1.1-1.4-1.7c-0.1-0.1-0.2-0.1-0.3-0.2c0,0.1-0.1,0.2-0.1,0.3
		C23.7,20,23.7,21.6,23.7,23.1z"/>
	<path class="st26" d="M36.8,10.7c0,0.9-0.2,1.7-0.9,2.3c-0.5,0.4-1.1,0.7-1.8,0.6c-0.8,0-1.4-0.3-1.9-0.9c-0.4-0.5-0.5-0.8-0.7-2
		c-0.2,0.1-0.3,0.1-0.4,0.2c-0.3,0.3-0.6,0.5-0.9,0.8c-0.1,0.1-0.2,0.1-0.3,0c-0.4-0.4-0.7-0.9-0.8-1.5c-0.1-0.3,0.1-0.5,0.3-0.6
		c0.4-0.3,0.9-0.3,1.4-0.3c0.4,0.1,0.7,0.2,1.1,0.3c1.1-1.6,3.4-1.6,4.5,0c0.4-0.1,0.7-0.2,1.1-0.3c0.4-0.1,0.9,0,1.3,0.2
		c0.4,0.2,0.6,0.5,0.4,0.9c-0.2,0.4-0.4,0.8-0.7,1.2c-0.1,0.2-0.2,0.2-0.4,0c-0.3-0.3-0.6-0.5-0.9-0.8C37.1,10.8,37,10.8,36.8,10.7z
		"/>
	<path class="st26" d="M21.1,13.7c-1.4,0-2.6-1.2-2.6-2.6c0-1.5,1.2-2.6,2.6-2.6c1.5,0,2.6,1.2,2.6,2.6
		C23.7,12.5,22.5,13.7,21.1,13.7z"/>
</g>
</svg>
